<svg width="1600" height="1200" viewBox="0 0 1600 1200" fill="none" xmlns="http://www.w3.org/2000/svg">
<path d="M1098.7 701.7C1098.6 717.9 1098.4 734.2 1098.3 750.4C1098.3 754.4 1098.2 758.4 1098.2 762.3C1098.2 765 1097.6 768.4 1098.7 771C1100.4 775.4 1106.1 774.2 1108.2 777.9C1108.4 777.2 1108.6 776.5 1108.7 775.8C1101.4 779.4 1099.5 787.5 1098.9 795C1098.4 802.2 1098.1 813.8 1107.5 815.2C1107.4 814.3 1107.3 813.4 1107.1 812.5C1092.9 819 1098.6 844.4 1104.6 854.6C1109 862.1 1115.5 868.2 1122.2 873.6C1126 876.7 1129.8 879.6 1133.7 882.6C1136 884.4 1138.3 886.1 1140.5 887.9C1141.7 888.8 1146.8 891.6 1147 893.3C1147.4 892.8 1147.7 892.3 1148.1 891.9C1148.2 891.9 1148.2 891.9 1148.3 891.9C1148.5 892.6 1148.7 893.3 1148.8 894C1148.9 893.9 1148.9 893.8 1149 893.7C1149.8 892 1147.3 890.5 1146.4 892.2C1146.3 892.3 1146.3 892.4 1146.2 892.5C1145.8 893.3 1146 894 1146.7 894.6C1147.4 895.2 1147.9 895.2 1148.8 894.9C1149.4 894.7 1150 894.1 1149.9 893.5C1149.5 890.4 1146.4 889 1144 887.2C1140.5 884.4 1136.9 881.7 1133.4 878.9C1126.8 873.8 1120.1 868.7 1114.4 862.7C1108 856 1103.6 848.2 1102.3 838.9C1101.2 831.3 1100.2 819.1 1108.6 815.2C1109.7 814.7 1109.5 812.6 1108.2 812.5C1100.2 811.3 1101.3 799.9 1101.9 793.8C1102.5 787.8 1104.2 781.5 1110.1 778.6C1110.8 778.2 1111 777.2 1110.6 776.5C1108.5 772.9 1103.4 773.6 1101.5 770.4C1100 768 1101 762.4 1101.1 759.5C1101.1 755.5 1101.2 751.5 1101.2 747.6C1101.3 732.4 1101.4 717.1 1101.6 701.9C1101.7 699.8 1098.7 699.7 1098.7 701.7Z" fill="#E8E8E8"/>
<path d="M1100.3 702.5C1114.3 703.2 1124.1 713.9 1132.5 723.9C1136.5 728.7 1140.7 733.2 1144.8 737.7C1149 742.2 1154.5 751.3 1146.9 755.7C1145.6 756.5 1146.2 758.5 1147.7 758.5C1159.3 758.8 1164.4 772.9 1168 781.8C1172.3 792.6 1175.7 803.7 1178.2 815C1183.3 838.2 1184.3 862.1 1181.4 885.6C1181.2 887.5 1184.2 887.5 1184.4 885.6C1187.5 859.4 1185.9 832.8 1179.4 807.3C1176.4 795.3 1172.4 783.2 1167 772C1163.2 764 1157.3 755.7 1147.7 755.5C1148 756.4 1148.2 757.4 1148.5 758.3C1163.1 749.9 1145 733.9 1139.1 727C1128.6 714.8 1118 700.3 1100.4 699.4C1098.4 699.4 1098.4 702.4 1100.3 702.5Z" fill="#E8E8E8"/>
<path d="M1150.5 738.5C1157.5 713.7 1167.3 689.8 1179.9 667.3C1179.2 667.5 1178.5 667.7 1177.8 667.8C1180.5 669.4 1183.3 671 1186 672.6C1187.4 673.4 1188.7 671.8 1188.1 670.5C1180.9 656.1 1202.5 646.9 1209.8 638.3C1209.2 638.4 1208.6 638.5 1208 638.5C1209.4 639.3 1210.9 640.1 1212.3 640.9C1213 641.3 1213.9 641.1 1214.4 640.4C1222.4 626.8 1236.5 619.2 1250.1 612.2C1249.4 611.6 1248.6 611.1 1247.9 610.5C1243.6 624.6 1250.4 640 1251.7 654.1C1252.4 661.7 1252.5 669.4 1251.9 677.1C1251.6 680.9 1251.9 686.6 1250.4 690C1250.4 692.5 1249 693.9 1246.1 694.4C1245.2 694.5 1244.4 694.6 1243.5 694.7C1241.5 694.9 1239.4 695.1 1237.4 695.3C1236.6 695.4 1235.8 695.9 1235.9 696.8C1236 698.8 1236.6 699.4 1238.1 700.7C1240 702.3 1241.5 702.5 1242.4 705.3C1242.9 706.8 1242.9 708.5 1242.9 710C1242.8 718.1 1241.6 726.4 1240.2 734.4C1238.8 742.2 1236.8 749.9 1234.4 757.4C1232.3 763.7 1229.5 773.1 1221.7 774.1C1220.7 774.2 1219.7 775.3 1220.4 776.4C1226.2 785.3 1217.6 796.1 1213.4 803.8C1208.8 812 1204.6 820.4 1200.7 828.9C1192.9 845.8 1186.5 863.3 1181.3 881.2C1180.8 883.1 1183.7 883.9 1184.2 882C1190.1 861.4 1197.8 841.4 1207.2 822.2C1211.6 813.1 1216.9 804.5 1221.5 795.5C1224.8 789 1227.4 781.4 1223.1 774.8C1222.7 775.6 1222.2 776.3 1221.8 777.1C1227.7 776.4 1231.5 772.2 1234.1 767.1C1238 759.3 1240.1 750.3 1242 741.8C1244.1 732.4 1245.5 722.8 1246 713.2C1246.2 710 1246.5 706.4 1245.1 703.4C1244.3 701.4 1239.2 698.3 1239.1 696.9C1238.6 697.4 1238.1 697.9 1237.6 698.4C1243.2 697.8 1251.2 699.2 1253.1 692.8C1255.6 684.8 1255.5 674.9 1255.4 666.7C1255.4 657.9 1254.5 649.2 1252.9 640.6C1251.1 630.9 1247.9 621.2 1250.9 611.4C1251.3 610.1 1249.8 609.1 1248.7 609.7C1234.6 617 1220.1 624.9 1211.9 639C1212.6 638.8 1213.3 638.6 1214 638.5C1212.6 637.7 1211.1 636.9 1209.7 636.1C1209.2 635.8 1208.3 635.8 1207.9 636.3C1199.5 646.2 1177.4 655.6 1185.7 672.1C1186.4 671.4 1187.1 670.7 1187.8 670C1185.1 668.4 1182.3 666.8 1179.6 665.2C1178.9 664.8 1177.9 665 1177.5 665.7C1164.9 688.5 1154.9 712.6 1147.8 737.6C1147 739.6 1149.9 740.4 1150.5 738.5Z" fill="#E8E8E8"/>
<path d="M1079.8 636.3C1063 637.5 1054.1 617.8 1056.9 603.6C1059.6 589.7 1073.2 579.9 1087.1 580.3C1105.4 580.7 1114.8 598.6 1111.5 615.3C1108.6 630.2 1093.6 641.2 1078.6 635.3C1076.8 634.6 1076 637.5 1077.8 638.2C1089.8 642.9 1103.8 637.4 1110.4 626.5C1117.4 614.9 1116.6 598.3 1108.5 587.5C1100.3 576.5 1084.6 575 1072.7 580.3C1060.8 585.5 1053 597.2 1053.3 610.2C1053.6 624.4 1064.1 640.4 1079.7 639.3C1081.7 639.2 1081.8 636.2 1079.8 636.3Z" fill="#E8E8E8"/>
<path d="M1233.3 416.6C1227.5 427.4 1220.8 437.6 1213.2 447.2C1212 448.7 1214.1 450.8 1215.3 449.3C1223.1 439.5 1230 429.1 1235.9 418.1C1236.8 416.4 1234.2 414.9 1233.3 416.6Z" fill="#E8E8E8"/>
<path d="M1233.2 419C1236.8 428.5 1240.6 438 1244.5 447.4C1245.2 449.2 1248.1 448.4 1247.4 446.6C1243.5 437.2 1239.7 427.7 1236.1 418.2C1235.4 416.4 1232.5 417.2 1233.2 419Z" fill="#E8E8E8"/>
<path d="M1232.5 420.4C1231.8 457.6 1227 494.6 1218.1 530.7C1217.6 532.6 1220.5 533.4 1221 531.5C1230 495.1 1234.8 457.9 1235.5 420.4C1235.6 418.4 1232.6 418.4 1232.5 420.4Z" fill="#E8E8E8"/>
<path d="M1249.8 481.5C1252.4 502.9 1251.8 524.5 1247.9 545.7C1247.6 547.6 1250.4 548.4 1250.8 546.5C1254.7 525 1255.4 503.2 1252.8 481.5C1252.5 479.6 1249.5 479.6 1249.8 481.5Z" fill="#E8E8E8"/>
<path d="M1238.3 523.1C1241.8 531.1 1247.9 538.4 1248.3 547.4C1248.4 548.9 1250.3 549.5 1251.1 548.2C1254.6 542.1 1258.2 536 1261.7 529.9C1262.7 528.2 1260.1 526.7 1259.1 528.4C1255.6 534.5 1252 540.6 1248.5 546.7C1249.4 547 1250.4 547.2 1251.3 547.5C1250.9 537.8 1244.6 530.3 1240.9 521.7C1240.1 519.8 1237.5 521.3 1238.3 523.1Z" fill="#E8E8E8"/>
<path d="M556 1029.4C616.3 1023.8 676.7 1016.5 737.2 1014C798.2 1011.5 859.5 1013.1 920.5 1014.7C955.5 1015.6 990.5 1017.3 1025.3 1020.6C1027.2 1020.8 1027.2 1017.8 1025.3 1017.6C964.1 1011.8 902.7 1011.1 841.3 1010.4C810.5 1010 779.7 1009.7 749 1010.7C719.1 1011.6 689.3 1014.1 659.5 1016.8C625 1020 590.5 1023.2 556 1026.4C554.1 1026.5 554.1 1029.5 556 1029.4Z" fill="#E8E8E8"/>
<path d="M869.8 985.2C894.9 989.9 919.7 989.7 945 987.4C971 985 996.9 983.5 1023 982.3C1075.4 980 1127.8 977.9 1180.1 975.7C1210 974.4 1239.9 973.2 1269.8 971.9C1271.7 971.8 1271.7 968.8 1269.8 968.9C1217.3 971.1 1164.9 973.3 1112.4 975.5C1060.8 977.7 1008.9 978.8 957.4 983.2C943.4 984.4 929.4 986 915.4 986.2C900.4 986.4 885.4 985 870.6 982.2C868.7 982 867.9 984.9 869.8 985.2Z" fill="#E8E8E8"/>
<path d="M189.4 964C236 965.3 282.6 965.1 329.2 963.4C331.1 963.3 331.1 960.3 329.2 960.4C282.6 962.1 236 962.3 189.4 961C187.4 960.9 187.4 963.9 189.4 964Z" fill="#E8E8E8"/>
<path d="M240.301 1004.2C257.301 1000.6 275.301 1002.9 292.501 1003.7C309.801 1004.6 327.001 1005.4 344.301 1006.3C379.501 1008.1 414.601 1009.9 449.801 1011.6C451.701 1011.7 451.701 1008.7 449.801 1008.6C414.001 1006.8 378.101 1005 342.301 1003.2C324.401 1002.3 306.501 1001.4 288.601 1000.5C272.301 999.7 255.701 997.8 239.601 1001.3C237.701 1001.7 238.501 1004.6 240.301 1004.2Z" fill="#E8E8E8"/>
<path d="M509.901 928C571.701 932.2 632.501 916.2 694.201 916.4C696.101 916.4 696.101 913.4 694.201 913.4C632.501 913.2 571.701 929.1 509.901 925C508.001 924.8 508.001 927.9 509.901 928Z" fill="#E8E8E8"/>
<path d="M463.601 617.2C464.101 615.5 464.601 613.8 465.401 612.2C465.901 611.5 466.301 610.9 466.801 610.2C468.901 610 471.101 609.7 473.201 609.5C473.801 609.9 474.301 611.1 474.701 611.7C476.201 613.8 477.801 615.6 480.101 617C484.501 619.6 489.801 620.2 494.501 618.4C506.801 613.9 511.401 597.6 526.401 599.2C530.401 599.6 534.201 601.2 537.101 604C539.301 606.1 541.001 608.7 543.301 610.7C547.401 614.1 552.501 614.6 557.401 612.8C563.401 610.7 568.001 606.2 572.501 601.9C578.601 596.2 587.501 589.3 595.601 595.4C600.901 599.3 604.001 605.3 610.601 607.4C616.801 609.4 623.401 608.2 628.601 604.3C630.101 603.2 628.601 600.5 627.101 601.7C619.901 607.1 610.901 606.2 604.601 599.9C600.401 595.8 596.801 590.7 590.601 590C576.001 588.2 568.401 606 556.001 610.1C546.601 613.2 543.501 604.8 537.301 600.2C532.701 596.8 526.901 595.4 521.201 596.3C515.201 597.2 510.601 600.8 506.401 604.9C501.501 609.8 496.301 616.5 488.701 616.5C483.601 616.5 479.701 613.7 476.901 609.7C475.301 607.5 474.001 605.7 471.101 605.4C464.801 604.8 462.101 611.4 460.601 616.3C460.101 618.2 463.001 619 463.601 617.2Z" fill="#E8E8E8"/>
<path d="M617.801 565.5C621.401 555 634.001 563.9 638.801 567.8C643.001 571.2 647.901 574.7 653.601 574.5C663.001 574.1 668.001 564.5 675.701 560.5C686.401 555 692.901 569.3 703.301 567.9C707.901 567.3 710.301 563.6 713.201 560.4C716.301 557 719.501 557 723.901 558C728.001 559 732.201 560 736.301 561C738.201 561.5 739.001 558.6 737.101 558.1C733.001 557.1 728.801 556.1 724.701 555.1C721.901 554.4 719.101 553.6 716.301 554.4C710.801 556.1 709.201 563.4 703.701 564.7C697.801 566.1 692.001 559.5 686.901 557.4C682.601 555.6 678.401 555.6 674.301 557.8C669.901 560.1 666.601 564 662.701 567.1C660.101 569.2 657.201 571.1 653.801 571.3C648.601 571.6 644.301 568 640.501 565C635.901 561.4 631.001 557.1 624.701 557.6C620.201 557.9 616.501 560.3 615.001 564.6C614.301 566.5 617.201 567.3 617.801 565.5Z" fill="#E8E8E8"/>
<path d="M1069.9 273.7C1069 292.4 1068.4 311.2 1068.2 330C1068.2 331.9 1071.2 331.9 1071.2 330C1071.4 311.2 1072 292.5 1072.9 273.7C1073 271.8 1070 271.8 1069.9 273.7Z" fill="#E8E8E8"/>
<path d="M1071.9 275.1C1095 271.9 1118.5 268.8 1141.5 274.2C1143.4 274.6 1144.2 271.8 1142.3 271.3C1118.8 265.7 1094.7 268.9 1071.1 272.2C1069.2 272.4 1070 275.3 1071.9 275.1Z" fill="#E8E8E8"/>
<path d="M1139.6 275.2C1140.1 313.2 1139.4 351.3 1137.4 389.3C1137.3 391.2 1140.3 391.2 1140.4 389.3C1142.4 351.3 1143.1 313.3 1142.6 275.2C1142.6 273.3 1139.6 273.3 1139.6 275.2Z" fill="#E8E8E8"/>
<path d="M1070.7 379.1C1071.2 383.9 1071.4 388.9 1072.3 393.6C1072.8 395.9 1073.6 397.5 1075.6 398.9C1081.9 403 1092.1 400.6 1099 400.2C1108.8 399.6 1118.7 399 1128.5 398.4C1132.9 398.1 1139.9 396.9 1137.2 390.8C1136.4 389 1133.8 390.6 1134.6 392.3C1135.1 393.4 1129.5 395.2 1128.5 395.4C1126.9 395.7 1125.2 395.6 1123.6 395.7C1120.7 395.9 1117.7 396.1 1114.8 396.2C1108.9 396.6 1103 396.9 1097.1 397.3C1091.7 397.6 1085.7 398.7 1080.3 397.5C1073.5 395.9 1074.4 384.9 1073.7 379.2C1073.5 377.2 1070.5 377.2 1070.7 379.1Z" fill="#E8E8E8"/>
<path d="M1052.5 375.4C1043.7 388.3 1034.6 401 1025.4 413.6C1025.1 414 1025.1 414.7 1025.4 415.1C1027 417.6 1029.7 418.6 1032.6 417.7C1036.9 416.4 1039 411.5 1041.2 408.1C1044.8 402.5 1048.9 397.2 1053.3 392.1C1055.2 390 1057.1 387.9 1059.1 385.9C1061.4 383.6 1065.3 378.7 1068.6 378.2C1070.5 377.9 1069.7 375 1067.8 375.3C1064.8 375.8 1062.8 378.2 1060.6 380.2C1057.7 382.9 1054.9 385.7 1052.2 388.7C1047 394.5 1042.2 400.7 1038 407.2C1036.8 409 1035.8 411.2 1034.3 412.8C1032.7 415.1 1031 415.3 1029 413.4C1029.6 412.6 1030.2 411.8 1030.7 411C1033.4 407.3 1036.1 403.6 1038.7 399.9C1044.2 392.2 1049.6 384.5 1054.9 376.7C1056.2 375.3 1053.6 373.8 1052.5 375.4Z" fill="#E8E8E8"/>
<path d="M1068.1 379.1C1080.5 379.4 1092.4 371.9 1097.3 360.5C1101.7 350.2 1099.3 336.8 1090 330C1079.3 322.3 1065.6 328.1 1057.3 336.5C1052.4 341.5 1048.3 347.8 1047.3 354.8C1046.9 357.6 1047 360.4 1047.7 363.1C1048.1 364.7 1048.7 366.2 1049.5 367.6C1049.7 368 1054.3 374.5 1052.3 374.4C1050.4 374.2 1050.4 377.2 1052.3 377.4C1055.4 377.7 1057 374.9 1056.1 372.1C1055.4 369.8 1053.2 368.2 1052 366.1C1050.2 362.8 1049.8 359 1050.3 355.3C1052 342.5 1065.6 329.1 1078.8 329.3C1091.8 329.4 1098.6 343.9 1095.9 355.3C1092.9 367.7 1080.7 376.4 1068.1 376C1066.1 376.1 1066.1 379.1 1068.1 379.1Z" fill="#E8E8E8"/>
<path d="M1082.3 285.7L1082.2 285.6C1082.2 286.3 1082.2 287 1082.2 287.7C1083.5 286.2 1092.5 286.3 1094.9 286C1098.7 285.6 1102.6 285.3 1106.4 285.1C1110.2 284.9 1114.1 284.7 1118 284.6C1119.7 284.6 1128.6 285.4 1129.2 283.8C1128.5 285.6 1131.4 286.4 1132.1 284.6C1132.2 284.4 1132.2 284.3 1132.3 284.1C1132.5 283.6 1132.3 283 1131.9 282.6C1129.7 280.4 1125.7 281.4 1122.8 281.4C1117.3 281.4 1111.9 281.6 1106.4 282C1101.3 282.3 1096.2 282.8 1091 283.3C1088.4 283.6 1081.9 283.2 1080 285.4C1079.5 286 1079.4 286.9 1080 287.5L1080.1 287.6C1081.6 289.2 1083.7 287 1082.3 285.7Z" fill="#E8E8E8"/>
<path d="M1080.9 300.3C1091 301.7 1100.8 301.3 1110.9 300.9C1112.8 300.8 1112.8 297.8 1110.9 297.9C1101 298.3 1091.5 298.7 1081.7 297.4C1079.8 297.2 1079 300.1 1080.9 300.3Z" fill="#E8E8E8"/>
<path d="M1074.1 311.6C1073.8 311.9 1073.5 312.3 1073.2 312.6C1072.3 313.6 1072.9 315.1 1074.3 315.2C1091.7 315.5 1109.1 314.7 1126.4 312.8C1128.3 312.6 1128.3 309.6 1126.4 309.8C1109.1 311.7 1091.7 312.5 1074.3 312.2C1074.7 313.1 1075 313.9 1075.4 314.8C1075.7 314.5 1076 314.1 1076.3 313.8C1077.5 312.3 1075.4 310.2 1074.1 311.6Z" fill="#E8E8E8"/>
<path d="M1095.6 328C1104.7 328.7 1113.8 328.3 1122.8 326.8C1124.7 326.5 1123.9 323.6 1122 323.9C1113.2 325.3 1104.4 325.7 1095.6 325C1093.6 324.9 1093.6 327.9 1095.6 328Z" fill="#E8E8E8"/>
<path d="M1071.2 368.5C1063.1 368.9 1056.2 361.8 1058.8 353.6C1060.8 347.1 1068.3 340.2 1075.1 339.1C1078.4 338.6 1082 339.4 1084.5 341.7C1088.2 345.1 1087.2 350.1 1085.5 354.2C1082.6 361.4 1077.3 367.9 1069.2 368.8C1067.3 369 1067.3 372 1069.2 371.8C1079.6 370.7 1087 361.8 1089.5 352C1091.9 342.8 1085.1 335.2 1075.6 336C1066.8 336.8 1057.1 345.7 1055.5 354.4C1053.8 364.1 1061.7 372 1071.2 371.5C1073.1 371.4 1073.1 368.4 1071.2 368.5Z" fill="#E8E8E8"/>
<path d="M1072.9 340.4C1068.9 349 1065.2 357.7 1061.9 366.5C1061.2 368.3 1064.1 369.1 1064.8 367.3C1068.1 358.7 1071.6 350.2 1075.5 341.9C1076.3 340.1 1073.8 338.6 1072.9 340.4Z" fill="#E8E8E8"/>
<path d="M1077.5 349C1074.9 354.4 1072.4 359.8 1069.8 365.2C1069 366.9 1071.6 368.5 1072.4 366.7C1075 361.3 1077.5 355.9 1080.1 350.5C1080.9 348.8 1078.4 347.2 1077.5 349Z" fill="#E8E8E8"/>
<path d="M334.101 185.7C334.101 194.8 334.101 204 334.101 213.1C334.101 215 337.101 215 337.101 213.1C337.101 204 337.101 194.8 337.101 185.7C337.101 183.8 334.101 183.8 334.101 185.7Z" fill="#E8E8E8"/>
<path d="M336 214.4C344.5 214.4 352.9 214.4 361.4 214.4C363.3 214.4 363.3 211.4 361.4 211.4C352.9 211.4 344.5 211.4 336 211.4C334.1 211.4 334.1 214.4 336 214.4Z" fill="#E8E8E8"/>
<path d="M363.2 211.2C363.2 201.3 363.2 191.3 363.2 181.4C363.2 179.5 360.2 179.5 360.2 181.4C360.2 191.3 360.2 201.3 360.2 211.2C360.2 213.1 363.2 213.1 363.2 211.2Z" fill="#E8E8E8"/>
<path d="M362.101 179.5C353.401 179.5 344.701 179.5 336.101 179.5C334.201 179.5 334.201 182.5 336.101 182.5C344.801 182.5 353.501 182.5 362.101 182.5C364.001 182.5 364.001 179.5 362.101 179.5Z" fill="#E8E8E8"/>
<path d="M346.801 216C346.801 226.2 346.801 236.3 346.801 246.5C346.801 248.4 349.801 248.4 349.801 246.5C349.801 236.3 349.801 226.2 349.801 216C349.801 214.1 346.801 214.1 346.801 216Z" fill="#E8E8E8"/>
<path d="M311.601 246.1C322.701 235.5 334.301 225.3 346.301 215.6C347.801 214.4 345.701 212.3 344.201 213.5C332.201 223.2 320.701 233.3 309.501 244C308.101 245.3 310.201 247.4 311.601 246.1Z" fill="#E8E8E8"/>
<path d="M350 216.6C362 225.7 374 234.8 386 243.9C387.5 245.1 389 242.5 387.5 241.3C375.5 232.2 363.5 223.1 351.5 214C350 212.8 348.5 215.4 350 216.6Z" fill="#E8E8E8"/>
<path d="M300 249.7C306.6 249.7 313.2 249.7 319.9 249.7C321.8 249.7 321.8 246.7 319.9 246.7C313.3 246.7 306.7 246.7 300 246.7C298.1 246.7 298.1 249.7 300 249.7Z" fill="#E8E8E8"/>
<path d="M318.101 250.3C318.101 257.8 318.101 265.4 318.101 272.9C318.101 274.8 321.101 274.8 321.101 272.9C321.101 265.4 321.101 257.8 321.101 250.3C321.101 248.3 318.101 248.3 318.101 250.3Z" fill="#E8E8E8"/>
<path d="M297.801 248.9C297.801 257.7 297.801 266.5 297.801 275.3C297.801 277.2 300.801 277.2 300.801 275.3C300.801 266.5 300.801 257.7 300.801 248.9C300.801 246.9 297.801 246.9 297.801 248.9Z" fill="#E8E8E8"/>
<path d="M299 277.1C305.2 277.1 311.3 277.1 317.5 277.1C319.4 277.1 319.4 274.1 317.5 274.1C311.3 274.1 305.2 274.1 299 274.1C297.1 274.1 297.1 277.1 299 277.1Z" fill="#E8E8E8"/>
<path d="M337.601 249.6C337.601 258.3 337.601 267 337.601 275.6C337.601 277.5 340.601 277.5 340.601 275.6C340.601 266.9 340.601 258.2 340.601 249.6C340.601 247.6 337.601 247.6 337.601 249.6Z" fill="#E8E8E8"/>
<path d="M339.101 276.4C345.201 276.4 351.201 276.4 357.301 276.4C359.201 276.4 359.201 273.4 357.301 273.4C351.201 273.4 345.201 273.4 339.101 273.4C337.201 273.4 337.201 276.4 339.101 276.4Z" fill="#E8E8E8"/>
<path d="M340.101 251.1C345.501 251.1 350.801 251.1 356.201 251.1C358.101 251.1 358.101 248.1 356.201 248.1C350.801 248.1 345.501 248.1 340.101 248.1C338.201 248.1 338.201 251.1 340.101 251.1Z" fill="#E8E8E8"/>
<path d="M355.101 249.2C355.101 257.4 355.101 265.6 355.101 273.9C355.101 275.8 358.101 275.8 358.101 273.9C358.101 265.7 358.101 257.5 358.101 249.2C358.101 247.3 355.101 247.3 355.101 249.2Z" fill="#E8E8E8"/>
<path d="M380 249.2C379.7 255.7 379.5 262.2 379.5 268.7C379.5 270.6 382.5 270.6 382.5 268.7C382.5 262.2 382.7 255.7 383 249.2C383.1 247.3 380.1 247.3 380 249.2Z" fill="#E8E8E8"/>
<path d="M381.301 249.9C387.901 249.2 394.501 248.4 401.101 247.7C403.001 247.5 403.001 244.5 401.101 244.7C394.501 245.4 387.901 246.2 381.301 246.9C379.401 247.1 379.301 250.1 381.301 249.9Z" fill="#E8E8E8"/>
<path d="M400.1 246.8C399.4 253.5 399.6 260.1 400.8 266.7C401.1 268.6 404 267.8 403.7 265.9C402.6 259.5 402.4 253.2 403.1 246.8C403.3 244.9 400.3 244.9 400.1 246.8Z" fill="#E8E8E8"/>
<path d="M382.3 271.3C388.9 270.3 395.5 269.3 402.1 268.3C404 268 403.2 265.1 401.3 265.4C394.7 266.4 388.1 267.4 381.5 268.4C379.6 268.7 380.4 271.5 382.3 271.3Z" fill="#E8E8E8"/>
<path d="M346.4 277.3C342.7 282.9 339.5 288.8 336.6 294.8C335.8 296.5 338.4 298.1 339.2 296.3C342.1 290.2 345.4 284.4 349 278.8C350 277.2 347.4 275.7 346.4 277.3Z" fill="#E8E8E8"/>
<path d="M347.3 278.5C351 283.5 354.2 288.7 356.9 294.2C357.8 295.9 360.4 294.4 359.5 292.7C356.7 287.2 353.5 281.9 349.9 277C348.8 275.4 346.2 276.9 347.3 278.5Z" fill="#E8E8E8"/>
<path d="M331.2 298.7C333.3 298.7 335.4 298.7 337.6 298.8C338.6 298.8 339.5 298.9 340.5 299C342.3 299.1 342.1 298.5 342.4 300.1C343.1 303.9 342.3 308.8 342 312.7C341.8 314.6 344.8 314.6 345 312.7C345.2 309.7 345.4 306.6 345.4 303.6C345.4 301.9 345.9 299.1 345 297.5C344.1 296 342 296.2 340.5 296.1C337.4 295.9 334.3 295.8 331.2 295.8C329.3 295.7 329.3 298.7 331.2 298.7Z" fill="#E8E8E8"/>
<path d="M329.2 298.6C329.5 302.1 329.8 305.5 330.1 309C330.3 311.8 329.9 315.9 331 318.6C331.4 319.7 331.9 320.1 333 320.3C335.6 320.8 339.5 319.5 342.1 319.1C344 318.8 343.2 316 341.3 316.2C339.5 316.4 336.7 317.5 335 317.1C333.1 316.6 333.5 314 333.4 312C333 307.5 332.6 303.1 332.2 298.6C332 296.7 329 296.6 329.2 298.6Z" fill="#E8E8E8"/>
<path d="M351.8 298.2C351.6 301.1 351.5 304.1 351.6 307C351.6 307.7 352.5 314.3 352.2 314.5C352.7 314.4 353.2 314.2 353.7 314.1C353.6 314.1 353.5 314 353.3 314C353.7 314.5 354 315 354.4 315.4C354.4 315.3 354.4 315.2 354.4 315C354 315.5 353.7 316 353.3 316.4C353.4 316.4 353.5 316.4 353.6 316.3C355.5 315.9 354.7 313 352.8 313.4C352.7 313.4 352.6 313.4 352.5 313.5C351.8 313.6 351.4 314.3 351.4 314.9C351.4 315 351.4 315.1 351.4 315.3C351.4 315.9 351.9 316.6 352.5 316.7C355.1 317.2 355.1 314.8 355 312.9C354.6 307.9 354.4 303 354.8 297.9C354.9 296.2 351.9 296.3 351.8 298.2Z" fill="#E8E8E8"/>
<path d="M353.601 298.9C353.601 298.2 360.001 298 360.901 298.1C363.401 298.5 362.901 298.7 363.301 300.5C363.601 301.7 363.201 303.4 363.101 304.6C363.001 307.1 363.001 309.5 363.101 312C363.101 313.4 364.101 317.6 363.401 318.6C364.101 318.4 364.801 318.2 365.501 318.1C365.401 318.1 365.301 318 365.201 318C365.401 318.6 365.701 319.1 365.901 319.7C365.901 319.6 366.001 319.5 366.001 319.4C366.501 317.5 363.601 316.7 363.101 318.6C363.101 318.7 363.001 318.8 363.001 318.9C362.801 319.5 363.101 320.3 363.701 320.6C363.801 320.6 363.901 320.7 364.001 320.7C364.801 321 365.601 320.9 366.101 320.2C366.801 319.2 366.501 318.2 366.401 317C366.301 314.3 366.101 311.5 366.101 308.8C366.101 306.1 366.201 303.3 366.301 300.6C366.401 299.4 366.701 297.8 365.901 296.7C364.201 294.4 358.801 295.1 356.601 295.4C354.101 295.7 350.801 296 350.601 299C350.601 300.8 353.601 300.8 353.601 298.9Z" fill="#E8E8E8"/>
<path d="M353.9 319.2C356.9 319 359.9 319.3 362.8 320C364.7 320.5 365.5 317.6 363.6 317.1C360.4 316.2 357.2 315.9 353.9 316.1C351.9 316.3 351.9 319.3 353.9 319.2Z" fill="#E8E8E8"/>
<path d="M391.501 271.9C389.101 277.2 387.001 282.7 385.101 288.2C384.501 290 387.401 290.8 388.001 289C389.801 283.7 391.801 278.5 394.101 273.4C394.901 271.6 392.301 270.1 391.501 271.9Z" fill="#E8E8E8"/>
<path d="M376.201 295.6C381.201 294.2 386.301 293.5 391.601 293.7C393.501 293.8 393.501 290.8 391.601 290.7C386.101 290.5 380.701 291.2 375.401 292.7C373.501 293.2 374.301 296.1 376.201 295.6Z" fill="#E8E8E8"/>
<path d="M376.101 294.2C375.201 297 375.901 299.6 376.201 302.4C376.501 305.8 376.5 309.1 376.4 312.5C376.2 316.9 377.301 317.4 381.701 317C384.701 316.7 388.8 317.5 389.9 314.2C390.9 311 390.6 306.7 390.9 303.3C391.2 299.7 391.6 296 391.9 292.4C392.1 290.5 389.1 290.5 388.9 292.4C388.5 296.6 388.101 300.9 387.701 305.1C387.501 306.8 387.601 308.9 387.201 310.6C386.601 313.4 386.3 313.6 383.4 313.9C382.5 314 381.7 314.1 380.8 314.2C379.1 314.8 378.6 314.3 379.3 312.6C378.9 311.2 379.5 309 379.4 307.5C379.3 303.7 377.8 298.6 378.9 295C379.6 293.1 376.701 292.3 376.101 294.2Z" fill="#E8E8E8"/>
<path d="M395.7 274.7C398 278.2 400 281.9 401.9 285.7C402.7 287.4 405.3 285.9 404.5 284.2C402.7 280.4 400.6 276.8 398.3 273.2C397.2 271.5 394.6 273 395.7 274.7Z" fill="#E8E8E8"/>
<path d="M399.101 290.1C404.101 290.1 409.101 290.1 414.101 290.1C416.001 290.1 416.001 287.1 414.101 287.1C413.801 287.1 413.501 287.1 413.201 287.1C411.301 287.1 411.301 290.1 413.201 290.1C413.501 290.1 413.801 290.1 414.101 290.1C416.001 290.1 416.001 287.1 414.101 287.1C409.101 287.1 404.101 287.1 399.101 287.1C397.101 287.1 397.101 290.1 399.101 290.1Z" fill="#E8E8E8"/>
<path d="M397.6 290C398 293.8 398.3 297.6 398.4 301.4C398.5 304.1 397.6 308.7 398.8 311.2C399.5 312.7 400.4 312.9 402 312.9C405.7 312.8 409.7 311.9 413.4 311.4C414 311.3 414.5 310.5 414.5 310C414.4 303.2 414.3 296.5 414.2 289.7C414.2 287.8 411.2 287.8 411.2 289.7C411.3 296.5 411.4 303.2 411.5 310C411.9 309.5 412.2 309 412.6 308.6C410.2 308.9 407.8 309.2 405.4 309.6C404.6 309.7 402.3 310.4 401.6 309.8C401.1 309.4 401.6 306.3 401.6 305.7C401.5 300.5 401.2 295.3 400.7 290.2C400.4 288.1 397.4 288.1 397.6 290Z" fill="#E8E8E8"/>
<path d="M286.601 298.2C291.801 293.4 297.101 288.9 302.801 284.8C304.301 283.7 302.801 281.1 301.301 282.2C295.401 286.5 289.801 291.1 284.501 296.1C283.101 297.4 285.201 299.5 286.601 298.2Z" fill="#E8E8E8"/>
<path d="M301.901 283.5C304.901 287.8 307.401 292.3 309.401 297C310.201 298.8 312.801 297.2 312.001 295.5C309.901 290.7 307.401 286.2 304.501 282C303.401 280.4 300.801 281.9 301.901 283.5Z" fill="#E8E8E8"/>
<path d="M273.3 303.7C276 303.5 278.6 303.3 281.3 303.1C282.5 303 283.8 302.7 284.9 302.8C286.3 302.3 286.7 302.4 286.1 303.2C285.7 303.8 285.5 304.4 285.6 305.1C284.5 310 284.3 315.2 284.1 320.2C285 319.8 285.8 319.5 286.7 319.1C286.6 319 286.5 318.9 286.4 318.7C285.1 317.3 283 319.4 284.3 320.8C284.4 320.9 284.5 321 284.6 321.2C285.5 322.2 287.1 321.4 287.2 320.1C287.3 315.8 287.7 311.5 288.3 307.3C288.6 305.5 289.9 302.5 288.8 300.7C287.9 299.3 286.4 299.6 285 299.7C281.1 300 277.3 300.3 273.4 300.6C271.4 300.9 271.4 303.9 273.3 303.7Z" fill="#E8E8E8"/>
<path d="M275.3 300.8C275.2 300.8 275.1 300.8 274.9 300.8C274.4 300.8 273.9 301.1 273.6 301.5C272 304.2 272.1 308.9 271.6 312C270.9 316.4 270.2 320.8 269.5 325.2C269.4 326 269.7 326.9 270.5 327C275.2 328 279.6 327.8 284.1 326.1C285.9 325.4 285.1 322.5 283.3 323.2C279.3 324.7 275.5 325 271.3 324.1C271.6 324.7 272 325.3 272.3 325.9C272.6 323.9 276.1 303.8 275.1 303.7C277.2 304 277.2 301 275.3 300.8Z" fill="#E8E8E8"/>
<path d="M302.501 300.3L302.401 300.4C303.101 300.4 303.801 300.4 304.501 300.4C304.401 300.4 304.401 300.3 304.301 300.3C304.301 301 304.301 301.7 304.301 302.4C304.401 302.3 306.201 302.3 306.601 302.3C307.701 302.2 308.901 302.1 310.001 302.1C312.101 302 314.201 302.1 316.301 302.3C315.901 301.4 315.601 300.6 315.201 299.7C315.001 299.8 314.801 300 314.701 300.1C312.801 300.3 312.801 303.3 314.701 303.1C315.801 303 316.601 302.7 317.401 301.8C318.301 300.8 317.701 299.3 316.301 299.2C313.401 299 310.501 298.9 307.601 299.1C306.201 299.2 303.301 298.9 302.301 300.2C301.801 300.8 301.601 301.8 302.301 302.3C302.401 302.3 302.401 302.4 302.501 302.4C303.101 302.9 304.101 303.1 304.601 302.4L304.701 302.3C305.901 301 303.801 298.9 302.501 300.3Z" fill="#E8E8E8"/>
<path d="M301.301 301C301.001 305.1 300.701 309.2 300.501 313.3C300.401 315.6 299.101 321.5 300.501 323.6C301.201 324.6 301.901 325 303.201 324.9C304.501 324.9 305.901 324 307.101 323.7C309.501 323 312.001 322.8 314.501 322.8C316.401 322.8 316.401 319.8 314.501 319.8C312.301 319.8 310.101 320 307.901 320.5C306.901 320.7 305.001 321.8 304.101 321.6C303.401 322.1 303.101 322 303.301 321.2C303.201 320.4 303.201 319.6 303.301 318.7C303.401 312.9 303.901 307 304.301 301.2C304.501 299 301.501 299 301.301 301Z" fill="#E8E8E8"/>
<path d="M314.2 301.3C313.4 308 313 314.7 313.1 321.5C313.1 323.4 316.1 323.4 316.1 321.5C316 314.7 316.4 308 317.2 301.3C317.5 299.4 314.5 299.4 314.2 301.3Z" fill="#E8E8E8"/>
<path d="M1113 720.8C1136.6 772.7 1153.1 827.5 1162.2 883.8C1162.5 885.7 1165.4 884.9 1165.1 883C1155.9 826.5 1139.3 771.4 1115.6 719.3C1114.8 717.6 1112.2 719.1 1113 720.8Z" fill="#E8E8E8"/>
<path d="M1237.5 633C1208.3 677.6 1182.9 724.6 1164.9 774.9C1164.2 776.7 1167.1 777.5 1167.8 775.7C1185.7 725.6 1211 678.9 1240.1 634.5C1241.1 632.9 1238.5 631.4 1237.5 633Z" fill="#E8E8E8"/>
<path d="M1102.8 775.6C1119 780 1132.9 790 1142.2 804C1143.3 805.6 1145.9 804.1 1144.8 802.5C1135.1 787.9 1120.6 777.3 1103.6 772.7C1101.7 772.2 1100.9 775.1 1102.8 775.6Z" fill="#E8E8E8"/>
<path d="M1141.8 734.1C1136.3 743.2 1132.6 753.1 1131.1 763.7C1130.8 765.6 1133.7 766.4 1134 764.5C1135.5 754.2 1139 744.5 1144.4 735.6C1145.4 734 1142.8 732.5 1141.8 734.1Z" fill="#E8E8E8"/>
<path d="M1172.9 677.9C1177.8 683.3 1181.2 689.5 1183.8 696.2C1185 699.2 1186 702.3 1186.9 705.3C1187.8 708.2 1189.9 712.5 1188.7 715.4C1188 717.2 1190.9 718 1191.6 716.2C1192.8 713.3 1191.6 710.4 1190.7 707.6C1189.5 703.5 1188.2 699.4 1186.6 695.4C1183.8 688.2 1180.1 681.5 1174.9 675.7C1173.7 674.3 1171.6 676.4 1172.9 677.9Z" fill="#E8E8E8"/>
<path d="M1206.8 689.4C1219.3 675 1235.5 664.8 1253.9 659.8C1255.8 659.3 1255 656.4 1253.1 656.9C1234.3 662 1217.5 672.5 1204.7 687.2C1203.5 688.7 1205.6 690.9 1206.8 689.4Z" fill="#E8E8E8"/>
<path d="M1171.5 769.7C1180.5 761.7 1191.1 756.1 1202.3 751.9C1207.4 750 1212.5 748.5 1217.7 747C1220.6 746.2 1223.4 745.5 1226.3 744.7C1227.7 744.4 1233.6 742 1234.7 742.6C1234.5 741.9 1234.3 741.2 1234.2 740.5C1234.1 740.6 1234.1 740.7 1234 740.8C1234.7 740.6 1235.4 740.4 1236.1 740.3C1236 740.3 1235.9 740.2 1235.8 740.2C1234.1 739.3 1232.6 741.9 1234.3 742.8C1234.4 742.8 1234.5 742.9 1234.6 742.9C1235.3 743.3 1236.2 743.1 1236.7 742.4C1236.8 742.3 1236.8 742.2 1236.9 742.1C1237.3 741.4 1237.1 740.5 1236.4 740C1235 739.2 1233.5 739.9 1232 740.2C1228.6 741 1225.2 741.8 1221.8 742.7C1215.3 744.4 1208.8 746.3 1202.4 748.5C1190.4 752.8 1179 758.7 1169.5 767.3C1168 768.8 1170.1 771 1171.5 769.7Z" fill="#E8E8E8"/>
<path d="M1120.5 893.1C1143.2 898.6 1166.3 894.5 1189 891.8C1213.6 888.9 1238.3 888.4 1263 888C1264.9 888 1264.9 885 1263 885C1238.9 885.4 1214.8 885.9 1190.9 888.6C1167.8 891.3 1144.3 895.8 1121.3 890.2C1119.5 889.7 1118.7 892.6 1120.5 893.1Z" fill="#E8E8E8"/>
<path d="M1192.1 884.6C1232.5 882.5 1272.9 880.3 1313.3 878.2C1315.2 878.1 1315.2 875.1 1313.3 875.2C1272.9 877.3 1232.5 879.5 1192.1 881.6C1190.2 881.7 1190.2 884.7 1192.1 884.6Z" fill="#E8E8E8"/>
<path d="M1076.4 595.9C1066.5 597.8 1054.4 588.3 1054.7 577.8C1055.1 565.9 1070 561.9 1079.5 561.8C1090 561.8 1097.4 569.9 1094.9 580.5C1093.8 585.1 1090.9 588.9 1087.3 591.8C1085.2 593.5 1076.7 599.7 1074.3 596.7C1073.1 595.2 1071 597.3 1072.2 598.8C1075.4 602.8 1082 598.7 1085.4 596.8C1090.6 593.7 1095.3 589 1097.3 583.2C1101.3 571.5 1094.2 559.8 1081.9 558.9C1070.2 558 1052.1 563.4 1051.8 577.8C1051.6 590.4 1065.4 601 1077.3 598.8C1079.1 598.5 1078.3 595.6 1076.4 595.9Z" fill="#E8E8E8"/>
<path d="M308.8 643C305.1 647.2 301.9 651.8 299.2 656.8C298.3 658.5 300.9 660 301.8 658.3C304.4 653.6 307.4 649.2 311 645.1C312.2 643.7 310.1 641.5 308.8 643Z" fill="#161616"/>
<path d="M308.701 644.2C311.701 648.4 314.701 652.5 317.701 656.7C318.801 658.3 321.401 656.8 320.301 655.2C317.301 651 314.301 646.9 311.301 642.7C310.101 641.1 307.501 642.6 308.701 644.2Z" fill="#161616"/>
<path d="M308.5 650.1C309.4 685.4 310.2 720.7 311.1 756.1C311.1 758 314.1 758 314.1 756.1C313.2 720.8 312.4 685.5 311.5 650.1C311.4 648.2 308.4 648.1 308.5 650.1Z" fill="#161616"/>
<path d="M314.401 758.9C358.801 758.9 403.201 758.9 447.601 758.9C449.501 758.9 449.501 755.9 447.601 755.9C403.201 755.9 358.801 755.9 314.401 755.9C312.501 755.9 312.501 758.9 314.401 758.9Z" fill="#161616"/>
<path d="M441.8 755.9C444.9 757.1 447.9 758.3 451 759.5C450.6 758.4 450.1 757.3 449.7 756.2C448.2 758.9 446.1 761 443.5 762.6C441 764.1 443.3 768 445.8 766.5C449.1 764.6 451.8 761.8 453.7 758.5C454.5 757.1 453.7 755.7 452.4 755.2C449.3 754 446.3 752.8 443.2 751.6C440.3 750.5 439.1 754.8 441.8 755.9Z" fill="#161616"/>
<path d="M1209.8 215.8C1205.8 210.5 1211.5 202.4 1217.7 206.4C1220.5 208.2 1221.8 211.9 1219.8 214.8C1218 217.4 1214.3 218.5 1211.5 217.1C1209.8 216.2 1208.3 218.8 1210 219.7C1214.1 221.7 1219.1 220.5 1222 216.9C1225.1 213 1224 207.5 1220.2 204.5C1216.5 201.6 1211.3 201.6 1208.1 205.2C1205.2 208.5 1204.7 213.8 1207.4 217.4C1208.3 218.8 1210.9 217.3 1209.8 215.8Z" fill="#5222D0"/>
<path d="M1293 596.1C1292.8 591.4 1296.3 588.2 1300.9 588.2C1302.8 588.2 1304.3 588.7 1306.1 587.9C1309.5 586.4 1310.8 582.5 1311.9 579.2C1313.5 574.4 1314.7 572.1 1320.7 573.6C1322.3 574 1323.3 574.8 1325 574.2C1330 572.3 1327 563.7 1334.6 565.1C1336.5 565.5 1337.3 562.6 1335.4 562.2C1333 561.7 1330.7 561.9 1328.6 563.4C1326.7 564.8 1326.5 566.5 1325.4 568.3C1325.3 570.2 1324 571 1321.6 570.7C1321.1 570.4 1320.5 570.1 1320 569.9C1318.9 569.8 1318.3 569.2 1317.1 569.3C1314.9 569.4 1313.2 570.8 1311.9 572.4C1310 574.7 1309.5 577.5 1308.4 580.3C1307.3 583.1 1306.2 585.1 1302.8 585.4C1301.3 585.5 1299.9 585 1298.4 585.2C1293.1 586 1289.7 590.9 1289.9 596.1C1290.1 598.1 1293.1 598.1 1293 596.1Z" fill="#161616"/>
<path d="M344.3 753.2C358.4 724.9 360.601 693 368.901 662.9C371.001 655.2 373.101 646.2 378.901 640.4C387.401 631.9 398.201 637.9 401.701 647.9C404.301 655.5 404.401 664.3 404.901 672.3C405.401 680.9 405.8 689.5 406.3 698.1C407.4 716.5 409.301 735 415.501 752.5C416.101 754.3 419.001 753.5 418.401 751.7C411.901 733.3 410.101 713.8 409.101 694.4C408.601 684.9 408.201 675.3 407.501 665.8C406.901 658.2 406.601 649.9 403.001 643C400.201 637.6 394.801 633.2 388.501 633.2C382.001 633.2 376.6 637.7 373.3 642.9C369 649.8 367.001 658.5 365.001 666.3C362.801 675 361.001 683.8 359.201 692.6C355.201 712.8 351.1 733.1 341.8 751.7C340.8 753.4 343.4 754.9 344.3 753.2Z" fill="#E5261F"/>
<path d="M358 629.2C356 626.3 360.1 622.4 362.5 625.6C364.8 628.6 360.5 631.6 358.1 629.3C356.7 628 354.6 630.1 356 631.4C358.1 633.4 361.5 633.6 363.9 631.9C366.6 630 366.9 626.4 364.9 623.8C362.9 621.2 359.2 620.5 356.7 622.7C354.5 624.7 353.8 628.2 355.5 630.7C356.5 632.3 359.1 630.8 358 629.2Z" fill="#E5261F"/>
<path d="M380.1 615.9C378.5 613.6 382 611.5 383.5 613.9C385.1 616.5 380.6 619.4 379.1 616.5C378.2 614.8 375.7 616.3 376.5 618C377.8 620.7 381.3 621.4 383.8 619.9C386.4 618.4 387.6 615 386 612.3C384.6 610 381.3 608.8 378.9 610.3C376.6 611.8 375.8 615 377.3 617.3C378.6 619 381.2 617.5 380.1 615.9Z" fill="#E5261F"/>
<path d="M371.4 593.9C370.6 591.6 373.1 589.2 375.1 591.1C377.1 593 374.8 595.7 372.5 594.9C370.7 594.3 369.9 597.2 371.7 597.8C376.9 599.5 381.3 592.9 377.2 589C375.4 587.2 372.6 586.9 370.5 588.4C368.6 589.8 367.6 592.4 368.5 594.7C369.2 596.5 372.1 595.8 371.4 593.9Z" fill="#E5261F"/>
<path d="M409.6 620.6C409.3 620.4 409.7 620.7 409.8 620.9C409.8 621 409.8 621.1 409.8 621.2C409.8 621.3 409.8 621.3 409.8 621.1V621.2C410 621.1 409.8 621.2 409.8 621.2C409.7 621.2 410.1 621.2 410.2 621.2C410.5 621.2 410.8 621.3 411.1 621.4C410.7 620.9 410.4 620.4 410 620C410 620.8 410 621.6 410 622.4C410.4 621.9 410.7 621.4 411.1 621C410.3 621.3 409.5 621.4 408.7 621.2C406.9 620.6 406.1 623.5 407.9 624.1C409.2 624.5 410.7 624.5 411.9 623.9C412.5 623.6 413 623.2 413 622.5C413 621.7 413 620.9 413 620.1C413 619.4 412.5 618.8 411.9 618.7C410.3 618.3 408.4 618.1 407.4 619.7C406.6 620.9 406.7 622.8 408.2 623.4C408.9 623.8 409.8 623.6 410.3 622.9C410.6 622 410.4 621 409.6 620.6Z" fill="#E5261F"/>
<path d="M576.6 222.5C577.1 222.7 576 227.7 576.5 228.9C577.2 230.4 578.801 231.3 580.401 231.5C582.601 231.9 584.5 230.9 586.3 229.8C588.1 228.7 592.4 224.9 593.7 229.1C594 230 593 232.2 593.3 233.4C594.2 237.4 598 237.2 600.7 235.1C601.7 234.3 602.3 233.3 603.1 232.4C604.1 230 605.6 229.5 607.5 230.9C607.5 231.5 607.6 232.1 607.8 232.6C608.8 234.1 609.3 235.1 611.3 235C613.2 234.9 613.2 231.9 611.3 232C611.4 232 609.2 227.5 608 227C606.6 226.4 605 226.9 603.7 227.7C602.8 228.2 602.101 229 601.401 229.7C599.901 231.2 600 233.4 597.6 231.9C595.3 230.5 597.2 228.3 595.6 226.3C593 223 588.6 224.8 585.8 226.6C584.2 227.6 580.2 231.2 579.2 225.9C579.1 225.2 579.7 224.1 579.7 223.4C579.7 221.8 579.4 220.9 578 220.2C576.4 219 574.9 221.6 576.6 222.5Z" fill="#E5261F"/>
<path d="M472.001 456.4C473.201 470.4 474.401 484.4 475.701 498.4C475.901 500.3 478.501 500.3 478.701 498.4C478.701 498.1 478.801 497.7 478.801 497.4C479.001 495.5 476.001 495.5 475.801 497.4C475.801 497.7 475.701 498.1 475.701 498.4C476.701 498.4 477.701 498.4 478.701 498.4C477.501 484.4 476.301 470.4 475.001 456.4C474.801 454.5 471.801 454.4 472.001 456.4Z" fill="#EC615B"/>
<path d="M474.3 457.5C478.5 456.6 485.8 455.3 489 458.8C491.9 461.9 491.2 468 491.6 472.2C492.3 480.6 493 489 493.7 497.3C493.9 499.2 496.9 499.2 496.7 497.3C495.7 485.3 495.6 472.7 493.6 460.8C492.1 451.5 480.5 453.2 473.5 454.6C471.6 455 472.4 457.9 474.3 457.5Z" fill="#EC615B"/>
<path d="M499.9 401.1C503.1 433.1 504.2 465.2 503.2 497.4C503.1 499.3 506.1 499.3 506.2 497.4C507.2 465.3 506.1 433.1 502.9 401.1C502.7 399.2 499.7 399.1 499.9 401.1Z" fill="#EC615B"/>
<path d="M503.5 401.1C507.6 401.7 512.6 401.7 516.4 403.1C521.5 404.9 520.7 414.1 521.2 418.8C522.1 427.9 522.7 437 523.3 446.1C524.4 465 524.8 483.9 525.2 502.8C525.2 504.7 528.2 504.7 528.2 502.8C527.7 481 527.2 459.1 525.7 437.3C525 427.1 524.5 416.8 522.9 406.7C521.5 398.1 511.2 399.2 504.3 398.1C502.4 398 501.6 400.8 503.5 401.1Z" fill="#EC615B"/>
<path d="M528.901 382.3C532.301 420.3 535.801 458.2 539.201 496.2C539.401 498.1 542.401 498.1 542.201 496.2C538.801 458.2 535.301 420.3 531.901 382.3C531.801 380.4 528.801 380.4 528.901 382.3Z" fill="#EC615B"/>
<path d="M530.8 383.8C535.6 382.9 540.5 382.6 545.4 383.1C549.5 383.5 552.4 384.3 552.6 388.7C552.7 390.2 552.7 391.8 552.7 393.3C553 400.8 553.3 408.3 553.7 415.8C555 444.5 556.5 473.1 558 501.8C558.1 503.7 561.1 503.7 561 501.8C559.4 470.8 557.8 439.9 556.4 408.9C556.1 402.4 555.8 396 555.6 389.5C555.5 386.6 555.5 383.7 552.8 381.8C550.3 380.1 546.4 380 543.5 379.9C539 379.6 534.5 380 530 380.9C528.1 381.3 528.9 384.2 530.8 383.8Z" fill="#EC615B"/>
<path d="M450.5 372.7C447.2 379.2 444 385.7 440.7 392.2C439.8 393.9 442.4 395.4 443.3 393.7C446.6 387.2 449.8 380.7 453.1 374.2C453.9 372.5 451.3 370.9 450.5 372.7Z" fill="#161616"/>
<path d="M450.9 375.7C452.3 381.5 455.4 386.6 460 390.4C461.5 391.6 463.6 389.5 462.1 388.3C457.9 384.8 455.1 380.3 453.8 375C453.3 373 450.4 373.8 450.9 375.7Z" fill="#161616"/>
<path d="M448.801 377.1C448.201 420.9 453.901 464.6 465.801 506.8C466.301 508.7 469.201 507.9 468.701 506C456.901 464.1 451.201 420.7 451.801 377.1C451.801 375.2 448.801 375.2 448.801 377.1Z" fill="#161616"/>
<path d="M469.401 509.4C492.801 507.2 516.301 506 539.801 505.9C561.701 505.8 585.401 504.9 605.601 514.8C607.301 515.6 608.801 513.1 607.101 512.2C587.501 502.6 565.101 502.8 543.701 502.9C518.901 502.9 494.101 504.1 469.401 506.4C467.501 506.6 467.501 509.6 469.401 509.4Z" fill="#161616"/>
<path d="M593.301 504.5C598.701 507.8 603.901 511.4 608.701 515.4C608.801 514.6 608.901 513.8 609.001 513C604.901 516.1 600.901 519.2 596.801 522.3C595.301 523.5 596.801 526.1 598.301 524.9C602.401 521.8 606.401 518.7 610.501 515.6C611.201 515.1 611.601 513.9 610.801 513.2C605.701 509 600.401 505.2 594.801 501.9C593.101 501 591.601 503.5 593.301 504.5Z" fill="#161616"/>
<path d="M458.1 427.8C459.6 429.6 461.1 431.4 462.6 433.2C463.2 433.9 464.5 433.7 465 432.9C473 417.2 480.9 401.4 489 385.7C491.1 381.7 494 385 497 386.1C498.9 386.8 500.9 386.6 502.8 385.9C507.6 384.1 510.8 379.1 513 374.7C516.6 367.2 519.8 359.4 523.3 351.8C524.2 349.7 525.2 347.6 526.1 345.6C526.6 344.4 527.2 341.9 528.2 341C531.3 338.2 538.9 344.6 541.5 346.2C545.8 348.8 552 354.6 557.6 353.1C561.8 352 563.8 347.4 565 343.6C570.8 326.5 578.2 311 589.6 296.9C590.5 295.8 589.7 293.9 588.1 294.4C582.9 296.1 578.2 298.7 573.9 302C572.5 303.1 574.3 305.1 575.7 304.4C579.6 302.5 583.6 300.5 587.5 298.6C586.8 298.3 586 298 585.3 297.7C586.5 303.7 587.7 309.7 588.8 315.7C589.2 317.6 592.1 316.8 591.7 314.9C590.5 308.9 589.3 302.9 588.2 296.9C588 295.9 586.8 295.6 586 296C582.1 297.9 578.1 299.9 574.2 301.8C574.8 302.6 575.4 303.4 576 304.2C579.9 301.1 584.1 298.9 588.9 297.3C588.4 296.5 587.9 295.6 587.4 294.8C578.7 305.6 571.5 317.5 566.3 330.4C564.9 333.8 563.7 337.3 562.6 340.8C561.7 343.6 560.3 349.6 556.6 350.2C552.4 350.9 547 346.1 543.6 344C540.2 341.9 536.9 339.6 533.4 337.7C529.4 335.6 526.9 336.4 524.9 340.3C521.1 347.8 518 355.8 514.5 363.5C511.9 369.3 508.6 381 501.5 382.9C496.7 384.2 492.3 377 488 381.2C485.5 383.6 484.2 388.1 482.7 391.1C480.4 395.6 478.2 400 475.9 404.5C471.4 413.4 466.8 422.3 462.3 431.2C463.1 431.1 463.9 431 464.7 430.9C463.2 429.1 461.7 427.3 460.2 425.5C458.9 424.2 456.8 426.3 458.1 427.8Z" fill="#161616"/>
<path d="M893.4 179.3C883.6 173.9 879.4 160.2 885.6 150.5C891.9 140.6 907.2 138.8 916.1 146.1C925.2 153.7 925.3 169.3 916.6 177.2C907.6 185.5 892.5 183.3 885.1 174.1C883.9 172.6 881.8 174.7 883 176.2C889.9 184.6 902.2 187.6 912.3 183.4C922.1 179.3 927.2 168.7 925.9 158.4C924.6 147.8 916.7 139.9 906.1 138.7C896 137.5 885.2 142.5 881.4 152.3C877.2 163.1 881.9 176.2 892 181.7C893.6 182.8 895.1 180.2 893.4 179.3Z" fill="#EC615B"/>
<path d="M936.8 197.7C932.6 189.9 943.4 181.3 948.8 189.7C953.6 197.1 941.8 202.7 938 195.8C937.1 194.1 934.5 195.6 935.4 197.3C937.8 201.7 943.4 202.9 947.8 201C953 198.8 954.3 192.8 951.4 188.2C948.4 183.4 942.2 181.5 937.4 184.9C932.9 188.1 931.5 194.4 934.1 199.3C935.2 200.9 937.8 199.4 936.8 197.7Z" fill="#EC615B"/>
<path d="M884.2 954.1C962.9 954.1 1041.5 954.1 1120.2 954.1C1122.1 954.1 1122.1 951.1 1120.2 951.1C1041.5 951.1 962.9 951.1 884.2 951.1C882.2 951.1 882.2 954.1 884.2 954.1Z" fill="#161616"/>
<path d="M1169.6 954.1C1184.6 954.1 1199.6 954.1 1214.6 954.1C1216.5 954.1 1216.5 951.1 1214.6 951.1C1199.6 951.1 1184.6 951.1 1169.6 951.1C1167.7 951.1 1167.7 954.1 1169.6 954.1Z" fill="#161616"/>
<path d="M657.5 999.5C709.8 999.5 762.2 999.5 814.5 999.5C816.4 999.5 816.4 996.5 814.5 996.5C762.2 996.5 709.8 996.5 657.5 996.5C655.6 996.5 655.6 999.5 657.5 999.5Z" fill="#161616"/>
<path d="M812.5 987.5C857.8 987.5 903.2 987.5 948.5 987.5C950.4 987.5 950.4 984.5 948.5 984.5C903.2 984.5 857.8 984.5 812.5 984.5C810.6 984.5 810.6 987.5 812.5 987.5Z" fill="#161616"/>
<path d="M447 979.3C460.7 979.3 474.3 979.3 488 979.3C490.9 979.3 490.9 974.8 488 974.8C474.3 974.8 460.7 974.8 447 974.8C444.1 974.8 444.1 979.3 447 979.3Z" fill="#161616"/>
<path d="M502 979.3C506.7 979.3 511.3 979.3 516 979.3C518.9 979.3 518.9 974.8 516 974.8C511.3 974.8 506.7 974.8 502 974.8C499.1 974.8 499.1 979.3 502 979.3Z" fill="#161616"/>
<path d="M388.8 797.7C390.7 798 393.3 800.4 395.3 811.8C401.2 812.2 407.1 812.6 413 813C417.9 808.9 422.8 804.8 427.7 800.6C428.4 804.6 429.3 810.5 430.1 817.7C431.9 834.4 430.8 838.4 431.9 847.7C432.4 851.8 434.7 869.1 445.4 885.9C453.6 898.8 459 899.2 465.4 911.8C470.4 921.7 471.9 931 472.5 937.1C473.5 937 486.2 936 494.3 945.9C498 950.5 502.1 959.1 499 965.9C496 972.5 489.1 971.5 476.6 982.4C472.2 986.2 468 990 469 993C470 996.1 475.4 995.5 484.9 1000.6C489.9 1003.3 492.3 1004.7 493.1 1007.1C496.1 1015.8 477.1 1029.2 474.3 1031.2C465.1 1037.6 453.9 1042.6 452.5 1040.6C450.4 1037.6 473 1021.1 469.6 1014.7C467.1 1009.9 452.9 1015.9 449.6 1010.6C446 1004.8 458.7 990.3 465.5 982.4C478.6 967.2 486.9 963.4 485.5 958.3C484 952.9 472.6 949.3 466.7 953C461.7 956.1 462.7 963.1 460.8 967.7C457.2 976.5 440 983.7 380.8 977.1C381.6 975.5 382.8 973.6 384.3 971.8C389.4 965.9 395.8 963.8 399 963C398.1 961.5 392.9 952.6 396.1 941.8C398.5 933.6 404.2 929.1 406.1 927.7C402.1 919.8 398.1 911.2 394.3 901.8C391.9 895.7 389.7 889.8 387.8 884.1C382.2 884.1 375.7 883.1 370.7 878.8C363.2 872.2 366.2 864.1 358.4 858.2C351.1 852.6 342.4 855.1 340.9 850.3C340.2 848 341.6 845.3 343.1 843.9C346.9 840.3 353.7 842.1 361.1 844.1C366.2 845.5 373.5 848.1 381.6 853C378.9 849.1 374 840.9 373.7 830C373 813.6 383 796.9 388.8 797.7Z" fill="#161616"/>
<path d="M385.301 869.5C378.401 872.5 381.001 892.8 383.501 911.3C385.101 923 387.801 938.5 392.901 956.6C378.901 967.4 379.601 970.5 380.001 971.3C381.301 974 390.601 972.4 393.501 971.9C396.601 971.4 401.001 970.6 403.501 969C410.601 964.3 406.901 950 404.701 927.2C401.501 894.2 405.301 880.4 394.701 872.5C393.301 871.4 388.701 868 385.301 869.5Z" fill="#161616"/>
<path d="M316.9 910.9C317.2 910.8 319.8 909.5 319.7 909.4C319.5 909.3 319.5 910.9 319.5 911.3C319.4 912.6 319 914.2 319.2 915.6C319.6 917.6 321.1 918.6 323.1 918.4C324.2 918.3 325 917.8 325.9 917.1C326.1 916.9 327.5 915.7 327.6 915.7C327.8 915.8 327.8 918 327.9 918.2C328.3 920.1 329.7 921.7 331.8 921.5C333.7 921.3 333.7 918.3 331.8 918.5C330.8 918.6 330.5 913.2 328.8 912.6C328.1 912.3 327.3 912.5 326.7 912.8C325.2 913.5 323 916.7 322.3 913.9C321.8 911.8 323.9 908.8 322 907C320.2 905.3 317.2 907.3 315.5 908.2C313.7 909.2 315.2 911.8 316.9 910.9Z" fill="white"/>
<path d="M385.701 830.3C387.401 828.7 390.301 829.1 391.501 831.1C392.301 832.3 394.201 831.2 393.401 830C391.401 826.8 386.801 826.2 384.101 828.7C383.101 829.7 384.701 831.3 385.701 830.3Z" fill="white"/>
<path d="M407.1 829.6C408.9 827.8 411.9 827.7 413.8 829.4C414.9 830.4 416.5 828.8 415.4 827.8C412.6 825.2 408.2 825.3 405.5 828C404.5 829 406.1 830.6 407.1 829.6Z" fill="white"/>
<path d="M389.6 841.3C388.5 843.5 383.8 851.1 388.9 851.7C391 851.9 393 850 394.2 848.6C395.9 846.6 396.9 844.1 397.8 841.7C398.5 839.9 395.6 839.1 394.9 840.9C393.8 843.7 392.6 846.3 390.2 848.3C389.7 848.7 389.4 849.4 389.6 848.5C389.7 847.9 390 847.3 390.3 846.8C390.9 845.5 391.5 844.2 392.2 842.9C393 841 390.4 839.5 389.6 841.3Z" fill="#EC615B"/>
<path d="M392.3 842.9C393.6 842.3 394.6 841.5 395.8 840.7C395.4 840.8 395 840.8 394.6 840.9C394.7 840.9 394.8 841 394.9 841C394.6 840.8 394.3 840.5 394 840.3C394 839.7 393.9 839.7 393.5 840.4C393.2 840.7 393 841 392.7 841.4C392.2 842 391.8 842.6 391.4 843.2C390.5 844.6 389.7 846 388.9 847.5C388 849.2 390.6 850.7 391.5 849C392.4 847.4 393.3 845.7 394.3 844.2C395.1 843 396.8 841.7 396.9 840.2C397 839.1 396.1 838.1 395.1 838.1C394.4 838 393.9 838.4 393.4 838.8C392.5 839.5 391.7 840 390.6 840.5C389.1 841 390.6 843.6 392.3 842.9Z" fill="#EC615B"/>
<path d="M389.301 841.2C392.601 841.3 395.701 838.9 396.301 835.6C396.501 834.2 394.401 833.6 394.101 835C393.701 837.4 391.701 839.1 389.301 839C387.801 838.9 387.801 841.1 389.301 841.2Z" fill="white"/>
<path d="M394.401 834.9C394.801 838.9 398.301 842.1 402.401 841.8C403.801 841.7 403.801 839.4 402.401 839.5C399.601 839.7 396.901 837.8 396.601 834.9C396.501 833.5 394.301 833.5 394.401 834.9Z" fill="white"/>
<path d="M1002.1 646.4C969 686.5 936 726.5 902.9 766.6C954.8 779.5 1006.7 792.4 1058.6 805.3C1060.3 783.8 1060.7 739.9 1036.8 694C1026 673.2 1013.1 657.6 1002.1 646.4Z" fill="#E5261F"/>
<path d="M893.2 774.7C945.6 787.9 998.1 801 1050.5 814.2C1049.9 822.6 1048.2 834.3 1043.2 847.3C1037.3 862.9 1029 874.2 1023 881.2C979.8 845.7 936.5 810.2 893.2 774.7Z" fill="#EC615B"/>
<path d="M885.5 952.6C981.763 952.6 1059.8 872.594 1059.8 773.9C1059.8 675.207 981.763 595.2 885.5 595.2C789.237 595.2 711.2 675.207 711.2 773.9C711.2 872.594 789.237 952.6 885.5 952.6Z" stroke="#161616" stroke-width="3" stroke-miterlimit="10"/>
<path d="M887.7 770.1C888.1 769.7 889.1 770 889.3 770.5C889.4 770.1 889.4 769.7 889.5 769.3C889.4 769.5 889.1 769.4 889 769.3C888.2 769 887.4 769.6 887.2 770.3C887 771.1 887.5 771.9 888.2 772.1C889.4 772.5 890.8 772.2 891.6 771.3C892.6 770.3 892.301 768.9 891.401 768C889.801 766.4 887.3 766.3 885.7 767.8C884.1 769.2 886.2 771.4 887.7 770.1Z" fill="#161616"/>
<path d="M993.1 634.5C961.2 680.9 926.9 725.7 890.4 768.6C889.2 770.1 891.3 772.2 892.5 770.7C929.2 727.6 963.6 682.7 995.7 636C996.8 634.4 994.2 632.9 993.1 634.5Z" fill="#161616"/>
<path d="M888.9 772C945.3 782.1 1001.3 794 1056.9 807.8C1058.8 808.3 1059.6 805.4 1057.7 804.9C1002.1 791.2 946.1 779.2 889.7 769.1C887.8 768.8 887 771.7 888.9 772Z" fill="#161616"/>
<path d="M888.7 771.5C931.4 810.6 975.4 848.2 1020.7 884.4C1022.2 885.6 1024.3 883.5 1022.8 882.3C977.6 846.2 933.5 808.5 890.8 769.4C889.4 768.1 887.2 770.2 888.7 771.5Z" fill="#161616"/>
<path opacity="0.21" d="M885.6 595.6C889.3 612.1 891.8 635.6 882.7 659.6C862 714.4 801.9 717.1 779.1 761.8C766.7 786.1 763.6 826.3 802.8 896.3C802.8 908.1 802.8 919.8 802.8 931.6C791.2 925.1 778.4 916.3 766.1 904.3C719.4 858.6 712.2 798.9 710.7 776.2C710.8 759.8 713.1 706.5 752.4 658.9C761.3 648.1 792.9 611.1 846.7 599.2C862.4 595.8 876 595.3 885.6 595.6Z" fill="#6D6C6C"/>
<path d="M589.6 876C596.5 893.4 603.4 910.7 610.2 928.1C606.1 937.1 599.8 950.4 591.1 966.3C579.7 987.1 574.3 994.1 576.1 996.2C578.7 999.2 595.6 991.7 661.2 942.6C657.1 931.2 652.9 919.7 648.8 908C642.8 891 637 874.2 631.3 857.5C617.5 863.7 603.6 869.9 589.6 876Z" fill="#161616"/>
<path d="M774 571.2C785.1 590.1 777.2 619.4 776.1 623.3C770 646 756.2 648.2 705.6 696.1C673.9 726.2 664.8 738.4 658.1 751.8C649 770.2 645.7 787.3 644.4 798.9C648.5 822.9 652.6 846.8 656.7 870.8C646.2 877.6 631.5 885.7 612.7 891.4C599.5 895.4 587.5 897.4 577.6 898.3C568.4 875 555.2 832 562.3 779.7C570.9 716 604.6 674.3 632.6 639.7C675.2 587.1 724.5 553 766.7 531C765.3 538.5 764.5 549.3 768.7 560.7C770.7 566.1 772.9 569.3 774 571.2Z" fill="#EC615B"/>
<path opacity="0.2" d="M757.4 544.1C744.9 577.9 729.9 604.1 716.3 623.8C675.8 682.7 645.9 687.5 622 742.2C606.7 777.2 603.4 810.6 602.4 822.6C599.9 850.5 602.1 874.2 604.9 891.6C610.5 891.4 617.5 890.6 625.2 888.4C640.1 884.1 650.7 876.6 656.8 871.3C655.1 863.2 652.6 851.2 649.8 836.5C646 816.1 644.1 805.8 644.1 798.5C644.1 777 653.2 760.8 660.6 747.9C664.1 741.8 674.3 724.9 710 692.2C747.7 657.7 763.4 651.7 773.3 626.4C779.2 611.3 779.1 599.3 779 595.4C778.1 569.1 763.3 550.7 757.4 544.1Z" fill="#6D6C6C"/>
<path opacity="0.27" d="M778.9 603.6C758.4 620.8 729.1 646.5 695.4 679.5C646.5 727.5 637.8 741.5 634 748.5C623.4 768 605.2 812.4 623.2 886.5C629.1 884.1 635.2 881.4 641.6 878.3C646.7 875.8 651.6 873.2 656.2 870.7C652.2 847.3 648.2 823.9 644.2 800.4C644.5 791.6 645.9 778.4 651.8 763.7C653.2 760.2 657.3 750.5 667.6 736.5C675.8 725.3 683.7 717.7 699.2 703C711.6 691.2 723.6 678.8 736.5 667.6C759.7 647.5 770.1 642 775.7 626.5C779 617.4 779.2 609.1 778.9 603.6Z" fill="#6D6C6C"/>
<path d="M699.7 873.8C714.9 885.5 730.1 897.2 745.3 908.9C725.1 960.1 725.1 973.4 729.2 975.7C736 979.6 758.3 955.5 771 937.8C782.3 921.9 788.9 907 792.7 896.6C786.5 888.7 779.4 880.5 771.5 872.1C760.6 860.5 749.9 850.6 739.8 842C726.5 852.7 713.1 863.2 699.7 873.8Z" fill="#161616"/>
<path d="M855.7 571.2C864.6 594.8 859.2 617.6 857.8 623.3C847.6 665.7 809.7 700.7 796.3 712.9C773.4 733.9 754.4 744.4 743.8 772.4C740.1 782 738.6 790.5 738 796.3C745.3 813 752.6 829.7 759.9 846.3C755.1 856.6 744.6 875.6 723.4 890.1C714.4 896.3 705.6 900.1 698.4 902.6C683.2 887.1 642 841.1 644.2 779.6C645.9 732.4 672.6 694.4 693.2 664.9C713.9 635.4 719.2 639 745.3 601.3C767.9 568.6 772.2 553.7 791.2 547.1C810.3 540.4 838.3 544.1 850.6 560.7C853 564.2 854.1 567.1 855.7 571.2Z" fill="#EC615B"/>
<path opacity="0.24" d="M809.2 566.7C810.3 575.9 811.1 591.7 806.5 609.9C790.5 671.8 731.9 677.2 703.7 744.2C698.2 757.3 685.4 789 695.5 825.7C703.3 854.3 721.5 872.9 731.8 881.9C735.8 879.8 742.4 875.6 748.2 868.2C755.4 859 757.7 849.6 758.5 844.9C751.4 827.8 744.3 810.6 737.3 793.5C738.6 785.9 741.3 775 747.6 763.3C756.2 747.1 766.6 738.9 780 726.8C804.6 704.7 820.3 690.7 833.9 671.4C842.5 659.1 855 641 859.1 614.5C862.5 592.9 858.9 574.8 855.8 563.9C840.3 564.9 824.7 565.8 809.2 566.7Z" fill="#6D6C6C"/>
<path opacity="0.25" d="M860.1 598.8C852.2 613.3 838.6 635.9 817.6 660.1C777.2 706.6 749.8 716.3 731 752.1C722.9 767.5 715.5 792.9 724.6 833.7C736.1 838.3 747.7 842.9 759.2 847.6C751.9 830.4 744.7 813.3 737.4 796.1C738.1 787.6 740.2 775 747.3 762C753.6 750.4 760.6 744.3 776 730.3C801.5 707.1 814.3 695.5 819.5 689.7C831.4 676.6 844.4 661.9 852.6 639.2C858.6 623.1 859.9 608.6 860.1 598.8Z" fill="#6D6C6C"/>
<path d="M616.7 431.8C614 425.8 609.3 417.1 600.7 409.2C589.9 399.3 574.8 392.2 572.4 395.1C571.4 396.3 571.5 400.5 589.7 420.6" fill="white"/>
<path d="M616.7 431.8C614 425.8 609.3 417.1 600.7 409.2C589.9 399.3 574.8 392.2 572.4 395.1C571.4 396.3 571.5 400.5 589.7 420.6" stroke="#161616" stroke-width="2" stroke-miterlimit="10"/>
<path d="M579 415.4C575.1 417.8 568.2 422.9 564.5 431.7C563.1 435.1 561.3 439.5 562.6 444.6C564.9 453.4 575.5 457.1 576.4 457.5C580.7 459 581.8 457.9 584.9 459.7C589.9 462.6 589.7 466.5 593.4 470.1C601 477.4 616.4 474.5 617.1 471.4C617.5 469.7 613.1 468.1 613.5 465C613.7 463.1 615.6 462.3 616.9 461.1C623.9 454.7 617.2 436 616 432.9C614.9 430 613.2 425.8 610.2 421.1" fill="white"/>
<path d="M579 415.4C575.1 417.8 568.2 422.9 564.5 431.7C563.1 435.1 561.3 439.5 562.6 444.6C564.9 453.4 575.5 457.1 576.4 457.5C580.7 459 581.8 457.9 584.9 459.7C589.9 462.6 589.7 466.5 593.4 470.1C601 477.4 616.4 474.5 617.1 471.4C617.5 469.7 613.1 468.1 613.5 465C613.7 463.1 615.6 462.3 616.9 461.1C623.9 454.7 617.2 436 616 432.9C614.9 430 613.2 425.8 610.2 421.1" stroke="#161616" stroke-width="2" stroke-miterlimit="10"/>
<path d="M560.9 443.3C563.2 449.3 567.6 454.6 573.7 457C579.9 459.5 584.5 456.2 584.6 449.6C584.6 447.7 581.6 447.7 581.6 449.6C581.5 457.3 573.9 454.5 570.1 451.4C567.2 449.1 565.1 446 563.8 442.5C563.1 440.7 560.2 441.4 560.9 443.3Z" fill="#161616"/>
<path d="M568.4 435.1C571.4 440.7 575.4 446.9 581.6 449.2C587.2 451.3 590.5 447.9 591.1 442.6C591.3 440.7 588.3 440.7 588.1 442.6C587.2 450.5 579.5 445 576.8 442.2C574.4 439.7 572.6 436.7 571 433.6C570.1 431.9 567.5 433.4 568.4 435.1Z" fill="#161616"/>
<path d="M577.4 421.6C579.2 425.6 581 429.7 583.5 433.3C585.2 435.8 587.6 439.4 590.9 440C598.7 441.5 596.2 430.4 594.7 426.6C594 424.8 591.1 425.6 591.8 427.4C592.5 429.1 594 432.6 593.4 434.5C591.7 440 587.1 433.2 586.1 431.8C583.6 428.2 581.8 424.1 580 420.1C579.2 418.3 576.6 419.8 577.4 421.6Z" fill="#161616"/>
<path d="M578.9 417.1C581.9 415.6 585.6 418.3 587.7 420.3C589.8 422.3 591.2 424.9 592.3 427.5C593 429.3 595.9 428.5 595.2 426.7C592.7 420.5 585.3 410.6 577.4 414.5C575.7 415.3 577.2 417.9 578.9 417.1Z" fill="#161616"/>
<path d="M795.8 386.4C799 395.9 794.1 404 780.4 428.4C757.4 469 756 472.6 750.7 479C738.2 494 731.1 502.5 718 508C694.1 518 667.6 509.2 653.1 503.7C639.6 498.5 629.6 491.8 623.1 486.8C618.7 483.2 615.3 480.4 613.1 478.7C608.5 475 606.4 473.4 604.6 470.2C604.5 470.1 602.8 467 602.4 463.5C600.9 452.8 611.5 443.8 612.3 443.1C599.6 446.1 595.2 445.5 594.4 443.7C592.5 439.7 606.3 425 616 428.3C620.6 429.8 622.9 435 624.6 438.8C627.9 446 627.5 452.7 627.1 456.1C633.2 460.3 641.9 465.2 653 468.5C674.9 474.9 693.7 471.5 703 469.1C708.1 460.9 716.4 447.5 726.5 430.8C754.1 385 761.4 370.5 774.1 370.3C783.6 370.2 793 378.1 795.8 386.4Z" fill="white" stroke="#161616" stroke-width="2" stroke-miterlimit="10"/>
<path d="M611.4 445.7C602.8 445.3 601.6 456.4 600.5 462.7C601.5 462.8 602.5 463 603.4 463.1C603.5 459.1 605.3 455.8 607.2 452.4C608.2 450.7 605.6 449.2 604.6 450.9C600.7 457.2 598.3 465 603.7 471.2C604.4 470.5 605.1 469.8 605.8 469.1C604.3 467.8 603.5 466.1 603.4 464C602.4 464.1 601.4 464.3 600.5 464.4C601 466 601.6 467.5 602.4 469C603.3 470.7 605.9 469.2 605 467.5C604.3 466.3 603.7 465 603.4 463.6C603 462 600.3 462.3 600.5 464C600.8 466.9 601.7 469.1 603.8 471.2C605.2 472.6 607.2 470.5 605.9 469.1C601.5 464 604.3 457.5 607.3 452.4C606.4 451.9 605.6 451.4 604.7 450.9C602.5 454.8 600.6 458.5 600.5 463.1C600.4 464.8 603.2 465.2 603.4 463.5C604.2 458.9 604.9 448.5 611.4 448.7C613.3 448.8 613.3 445.8 611.4 445.7Z" fill="white"/>
<path opacity="0.21" d="M780.5 374.4C774.2 391.3 764 415.4 747.9 442.7C731.5 470.6 722.9 484.6 708.1 492C677.7 507.1 630.8 496.9 615 468C610.2 459.2 609.1 450.3 609.1 443.6C605.3 444.9 599.4 446.3 593.7 444.1C580.9 439 579.7 419.9 572.9 420.1C568.4 420.3 565.1 428.8 563.9 431.9C562.8 434.7 561 439.3 562.1 444.1C563.7 451.2 571.2 456.8 580.6 458.6C585.5 461 588.6 463.7 590.5 465.8C593.8 469.4 594.7 472.2 598.2 473.9C601.3 475.4 604.6 475.2 606.8 474.8C611.5 478.6 618.9 484.3 628.5 490.2C649.1 502.8 674 518 702.2 512.8C715.5 510.4 724.6 504.3 730.2 500.6C739.3 494.5 749.1 485.3 767.7 451.8C775.4 437.9 784.9 419.4 794.4 396.6C794.8 395.6 797 389.7 793.9 383.5C790.1 375.3 781 374.4 780.5 374.4Z" fill="#6D6C6C"/>
<path opacity="0.22" d="M591.3 443.9C589.9 444.9 590.5 446.9 588.8 448.4C587.6 449.4 586 449.4 585 449.4C585 450.8 584.8 452.6 583.7 454.2C582.3 456.2 580.4 456.6 580.5 457.4C580.7 458.3 583.5 457.8 586.2 459.3C588.1 460.4 589.3 462.1 590 463.4C596.6 457.1 603.2 450.9 609.8 444.6C604.8 446.5 601.1 446.2 598.6 445.6C595.4 444.6 593 442.7 591.3 443.9Z" fill="#6D6C6C"/>
<path d="M795 366.8C788.3 373.5 784.8 381.1 778 396.3C772.6 408.2 763.9 428.1 761 454.6C757.8 484.2 765.3 490.9 759.3 512.9C754.8 529.5 746.3 541.7 740 549.1C748.1 557.2 762.8 569.7 784.7 577.4C821.8 590.4 854.4 580.6 865.1 576.8C874 552.8 882.8 528.8 891.7 504.9C891.8 484.6 892.6 467.3 893.4 453.9C895.4 421.9 898.7 397.4 900.8 382.5C903.2 365 905.7 350.3 907.6 339.5C885.1 340.7 866.5 343.3 853.2 345.7C809.6 353.7 799.3 362.5 795 366.8Z" fill="white" stroke="#161616" stroke-width="2" stroke-miterlimit="10"/>
<path opacity="0.19" d="M848 346.4C852.5 357.1 858.3 374.4 859.6 396.1C862.7 447.7 837.8 488.1 818.9 518.7C810.3 532.6 797 551.9 777.3 572.8C784.9 576.8 795.8 581.3 809.5 583.5C834.3 587.5 854.5 581.5 864.5 577.7C872.9 553.5 881.2 529.4 889.6 505.2C890.1 488.7 891 471.6 892.3 454.2C895.3 413.6 900.2 375.5 906.2 340.1C886.8 342.2 867.4 344.3 848 346.4Z" fill="#6D6C6C"/>
<path opacity="0.11" d="M865.9 343.3C873.1 361.9 880.6 389 878.9 421.6C874.1 512.3 802.3 567.2 789.9 576.4C797.5 579.1 807.8 581.9 820.3 582.7C838.9 583.9 854 580.1 863.3 576.9C872.5 552.7 881.8 528.6 891 504.4C891 482.3 891.8 458.7 893.7 433.7C896.3 400 900.6 368.8 905.8 340.6C892.5 341.5 879.2 342.4 865.9 343.3Z" fill="#6D6C6C"/>
<path d="M903.9 338.2C912 341.2 923.9 347 932.5 358.7C942.1 371.8 944.2 387.6 938.7 437.7C933.6 484.3 929.2 494.3 927.5 522.3C925.6 553.1 928.5 578.3 931.2 594.4C942.6 591.7 954 589 965.4 586.3C977.8 589.6 985.3 595.7 989 599.4C992.7 603 1000.5 610.6 998.3 616.8C996.9 620.8 991.8 622.8 989.6 623.6C985.3 625.3 981.7 625.1 977.8 624.8C969.5 624.3 961.2 624 952.9 623.6C948.6 623.4 942.4 623.2 934.9 623.6C945 632.3 949.3 637.9 948 640.4C946.2 643.7 934.2 641.4 911.9 633.6C910.9 625.5 909.3 613.2 906.9 598.2C900.7 559 896.2 545 893.2 524.2C890.1 502.7 891.1 483.3 893.2 444.6C894.8 417.2 897.7 381 903.9 338.2Z" fill="white" stroke="#161616" stroke-width="2" stroke-miterlimit="10"/>
<path d="M950.3 610.3C958 607.1 966 608.9 973.4 612.2C979.7 614.9 985.9 618.2 990.8 623C992.2 624.3 994.3 622.2 992.9 620.9C987.2 615.4 980.1 611.7 972.8 608.8C965.3 605.7 957.2 604.3 949.4 607.5C947.8 608.1 948.6 611 950.3 610.3Z" fill="#161616"/>
<path d="M960.1 601.1C973.4 598.5 989.2 606.4 996.5 617.7C997.6 619.3 1000.2 617.8 999.1 616.2C990.9 603.7 974.1 595.4 959.3 598.3C957.4 598.6 958.2 601.5 960.1 601.1Z" fill="#161616"/>
<path d="M971.6 594.2C976.9 594.4 981.5 596.7 986.1 599.2C987.8 600.1 989.3 597.5 987.6 596.6C982.5 593.9 977.4 591.4 971.6 591.2C969.7 591.1 969.7 594.1 971.6 594.2Z" fill="#161616"/>
<path opacity="0.16" d="M905.3 340.6C910.3 351.9 917.4 370.3 921 393.9C929.7 451.7 908.3 481.8 912.1 544.3C913 559.8 915.9 582.9 925.1 611C933.1 608.4 945.3 605.8 959.6 607.4C969.7 608.6 974.7 609.2 979.7 612.8C984.7 616.4 987.6 621.2 992.7 620.9C994.7 620.8 997.4 619.9 998.5 617.8C1001.2 612.9 993.8 604.5 991.3 601.7C987.7 597.6 980.3 590.6 966.7 586.5C954.9 588.9 943.1 591.3 931.3 593.7C929 583.5 925.8 566.5 925.5 545.4C925.2 527.4 928.4 505.6 934.9 462.6C936.1 454.6 937.6 438.5 940.7 406.2C941.7 395.6 942.5 386.1 938.9 374.4C937.1 368.5 932.7 355.1 919.7 346.7C914.2 342.9 908.9 341.4 905.3 340.6Z" fill="#6D6C6C"/>
<path opacity="0.22" d="M927.2 623C928.5 626.2 931.3 631.7 937 636C940.5 638.6 946.6 641.8 947.7 640.5C949.1 638.9 943.8 630.1 935.6 625.7C932.5 624 929.4 623.3 927.2 623Z" fill="#6D6C6C"/>
<path opacity="0.4" d="M938.4 422.9C929.3 447.9 918.4 488 921.4 537.5C922.9 562.8 927.8 584.6 933 601.9C927.8 582.1 926.3 565.7 925.8 554.5C924.6 524.6 930 507.8 935.6 452.9C937 440.2 937.9 429.7 938.4 422.9Z" fill="#6D6C6C"/>
<path opacity="0.22" d="M958.601 598.8C958.401 597.6 968.401 593 978.301 595.2C991.601 598.2 997.801 612.2 998.901 614.9C994.201 609.6 986.601 602.7 975.601 600.1C966.301 598 958.701 599.8 958.601 598.8Z" fill="#6D6C6C"/>
<path d="M758.2 317.7C754 321.6 753.1 329.8 751.4 345.9C749.5 364.4 748.7 373.8 752.6 378.5C759.7 387.1 775 387.6 785.6 382.9C798.1 377.3 802.4 365.2 803.5 362.2C808.4 348.3 806.8 327.3 792 317.7C782 311.1 766.5 310 758.2 317.7Z" fill="#EC615B"/>
<path d="M779.801 332.3C781.301 339.5 789.301 340.1 796.101 351.6C801.001 359.9 802.001 368.4 802.101 374.5C808.201 374.4 819.501 373.2 831.701 366.9C841.201 361.9 847.601 355.6 851.301 351.3C848.801 347.2 845.101 341.2 840.701 334C821.701 303.5 818.901 301.1 815.101 300.1C799.701 296.4 776.901 318.9 779.801 332.3Z" fill="white" stroke="#161616" stroke-width="2" stroke-miterlimit="10"/>
<path d="M810.9 320.2C806.3 329.9 801.6 339.5 795.2 348.2C796 348.1 796.8 348 797.6 347.9C797 347.2 796.4 346.4 795.9 345.7C795.8 346.3 795.7 346.9 795.7 347.5C798.3 345.3 800.3 342.9 802.1 340C801.2 339.5 800.4 339 799.5 338.5C798.1 341.5 796.3 343.3 793.4 344.6C794 345.4 794.6 346.2 795.2 347C800.4 342.1 805.1 336.7 809.3 330.9C810.4 329.3 807.8 327.8 806.7 329.4C802.7 335 798.1 340.2 793.1 344.9C791.8 346.1 793.5 347.9 794.9 347.3C798.2 345.8 800.6 343.4 802.1 340.1C802.9 338.4 800.6 336.9 799.5 338.6C797.8 341.2 795.9 343.4 793.6 345.5C793.1 345.9 793 346.8 793.4 347.3C794.3 348.7 794.4 348.9 795.6 350.1C796.3 350.9 797.4 350.5 798 349.8C804.4 341.2 809.1 331.5 813.7 321.8C814.3 320 811.7 318.5 810.9 320.2Z" fill="#161616"/>
<path d="M714 243.4C709.4 251.9 710.5 260.5 712.7 277.3C715.3 296.3 718.7 312.2 722.8 322.7C723.4 324.3 725 325.2 726.7 325C728.9 324.8 732.2 323.1 734.1 322.5C736.5 326.8 740.5 332.6 746.7 338C759 348.6 772.5 351.1 778.5 351.8C784.4 349.6 799 343.1 808.7 327.5C815.1 317.1 816.4 307.5 816.7 305.3C818.4 290.9 813.6 279.7 811.3 275.1C813.4 273.8 816.6 271.5 818.8 267.6C823.4 259.5 823.2 246.1 815.9 242.5C810.4 239.8 801.7 242.8 795.8 250.5C793.9 247.2 791 242.8 786.6 238.4C785.5 237.3 777.4 229.1 768.2 225.4C750.2 218.3 723.4 226.1 714 243.4Z" fill="white" stroke="#161616" stroke-width="2" stroke-miterlimit="10"/>
<path d="M740.4 331.7C747.3 329.9 751.3 324.1 754.8 318.4C755.8 316.8 753.2 315.3 752.2 316.9C749.1 321.9 745.6 327.2 739.6 328.9C737.7 329.3 738.5 332.2 740.4 331.7Z" fill="#161616"/>
<path d="M749.5 318.2C751.5 318.3 753.1 319.1 754.4 320.6C755.7 322.1 757.8 319.9 756.5 318.5C754.7 316.4 752.2 315.3 749.5 315.2C747.5 315.2 747.5 318.2 749.5 318.2Z" fill="#161616"/>
<path d="M741.9 301.7C741.9 301.6 741.9 301.5 741.9 301.4C741.9 300.6 741.2 299.9 740.4 299.9C739.6 299.9 738.9 300.6 738.9 301.4C738.9 301.5 738.9 301.6 738.9 301.7C738.9 302.5 739.6 303.2 740.4 303.2C741.2 303.1 741.9 302.5 741.9 301.7Z" fill="#161616"/>
<path d="M748.6 293.7C750.5 293.7 750.5 290.7 748.6 290.7C746.7 290.7 746.7 293.7 748.6 293.7Z" fill="#161616"/>
<path d="M747.7 301.3C749.6 301.3 749.6 298.3 747.7 298.3C745.8 298.3 745.8 301.3 747.7 301.3Z" fill="#161616"/>
<path d="M709.7 277.5C706.5 276.4 699.7 273.5 695.8 266.8C689.7 256.4 694.6 244.3 697 238.6C698.3 235.4 701.9 227.5 719.3 212C732.5 200.1 739.2 194.2 746.7 190.9C773.5 179.2 800.9 190.4 805.9 192.5C813.3 195.5 818.7 199.2 829.4 206.4C842.4 215.2 850.7 220.9 857.2 230.7C865.1 242.7 860.3 245.8 867.1 259.3C877.9 280.7 892.8 278.1 901.7 297.9C903.2 301.2 911.5 319.6 902.1 335.7C894.4 348.8 878.7 353.5 867.1 353.2C845.6 352.6 832.1 334.2 825 324.6C811.5 306.3 808.9 286.9 808.3 276.5C816.8 272.2 820.1 263 817 256.6C814.6 251.5 807.6 247.2 801.5 249.8C797.3 251.6 794.6 256.4 794.7 261.7C790.7 262.4 778.4 263.9 765.7 256.9C756.3 251.8 751.2 244.6 749 241C743.4 243.2 734.4 247.4 725.5 255.7C717 263.7 712.2 272.1 709.7 277.5Z" fill="#E5261F"/>
<path opacity="0.24" d="M774.9 283.3C786 293.7 791.4 305.2 793.1 309.1C800.1 325.1 799.7 339.8 799 347.3C802.6 341.2 806.1 335.1 809.7 328.9C815.5 341.9 821.2 354.9 827 367.8C830.1 367.1 836.2 365.3 842.1 360.1C846.6 356.1 849 351.8 850.2 349.1C841.8 343.1 825.3 329.5 815.7 306.1C811.1 294.9 809.3 284.5 808.7 276.7C816.8 272.3 820.2 263.5 817.5 256.9C815.6 252.1 809.7 246.7 803.2 248.5C797.7 250 793.9 255.9 794.8 262.5C790.6 263 780.6 263.7 769.5 258.8C758 253.7 751.7 245.4 749.3 241.9C752 259.6 758.8 269.2 764.5 274.7C768.1 278.4 769.6 278.4 774.9 283.3Z" fill="#6D6C6C"/>
<path opacity="0.24" d="M808.9 288.1C808.2 288.1 808.6 298.4 807.6 307.9C806.3 320.1 802.7 329.8 799.7 336.3C802.4 334.6 806.4 331.4 809.9 326.4C814.9 319.1 815.8 311.9 816.1 308.4C815.2 307 814 305 812.9 302.5C809.4 294.5 809.5 288.1 808.9 288.1Z" fill="#6D6C6C"/>
<path opacity="0.19" d="M812.4 322.8C814.8 325.3 818.2 328.6 822.6 332.2C835.9 343.3 848.8 349.6 849.2 348.9C849.6 348.2 837 343.1 827.4 329.3C821.4 320.7 817.9 310.5 816.4 311C815.7 311.2 816.3 313.6 815.1 317.5C814.3 319.8 813.2 321.6 812.4 322.8Z" fill="#6D6C6C"/>
<path opacity="0.74" d="M823.5 202.7C835.3 223.1 843.7 240.9 849.4 254.1C865.3 291.2 864 301.4 861.8 308C856.9 322.9 843.3 331.3 835.2 335.3C837.2 338.1 845.5 349.2 860.7 352.3C863.6 352.9 881.1 356.2 894.4 344.1C904.3 335.2 905.8 323.4 906.1 320.3C907.9 303.5 897.9 290.9 894.7 287.3C890.5 282.6 889.6 283.7 879.8 274.2C872.2 266.9 868.5 263.2 866.3 258.6C862.8 251.1 865.1 247.9 861 238.4C858.8 233.2 856.2 229.7 854.3 227C844.6 213.9 830.6 206.2 823.5 202.7Z" fill="#B34742"/>
<path opacity="0.52" d="M752.4 351.2C753.3 362.8 763.9 371.2 775 369.6C785.7 368 793.4 357.6 791.5 346.5C793.5 348.8 796.3 352.6 798.3 357.8C799.9 361.9 800.5 365.6 800.7 368.3C799.2 370.8 791.4 383.2 776.8 385.6C774.3 386 760.1 388.1 753.4 379.6C750.2 375.4 749.9 370.3 749.7 366.2C749.5 359.5 751.2 354.2 752.4 351.2Z" fill="#E5261F"/>
<path d="M733.6 285.2C734.6 287.2 734.6 290.1 733.3 290.7C732 291.4 729.5 289.5 728.6 287.3C727.9 285.4 728.1 282.7 729.4 282.2C730.8 281.7 732.8 283.5 733.6 285.2Z" fill="#161616"/>
<path d="M725.4 282.9C728.9 281.7 732.5 280.8 736.2 280.2C737.6 280 737 277.8 735.6 278C731.9 278.6 728.3 279.5 724.8 280.7C723.4 281.2 724 283.3 725.4 282.9Z" fill="#161616"/>
</svg>
