<svg width="1673" height="925" viewBox="0 0 1673 925" fill="none" xmlns="http://www.w3.org/2000/svg">
<path d="M0 353.856L110.763 468.516L0 583.176L48.1538 633.027L207.067 468.513L48.1538 304L0 353.856ZM272.413 562.516V633.016H454.013V562.516H272.413Z" fill="white"/>
<path d="M515.391 633V392.195H680.333V424.379H570.563V488.747H656.77V520.931H570.563V633H515.391ZM794.261 543.92H877.594L836.215 437.023L794.261 543.92ZM875.87 392.195L963.801 633H908.629L888.514 576.103H783.342L763.801 633H708.629L795.985 392.195H875.87ZM1090.4 493.92C1106.11 493.92 1113.97 488.556 1113.97 477.828V440.471C1113.97 429.743 1106.11 424.379 1090.4 424.379H1046.15V493.92H1090.4ZM1102.47 526.103L1181.78 633H1123.74L1046.15 528.402V633H990.977V392.195H1101.9C1120.29 392.195 1136 396.027 1149.02 403.69C1162.43 411.352 1169.14 421.889 1169.14 435.299V483C1169.14 496.41 1162.62 506.946 1149.6 514.609C1136.57 522.272 1120.86 526.103 1102.47 526.103ZM1302.32 494.494C1318.02 494.494 1325.88 489.13 1325.88 478.402V440.471C1325.88 429.743 1318.02 424.379 1302.32 424.379H1258.06V494.494H1302.32ZM1202.89 633V392.195H1313.81C1332.2 392.195 1347.91 396.027 1360.94 403.69C1374.35 411.352 1381.05 421.889 1381.05 435.299V483.575C1381.05 496.985 1374.35 507.521 1360.94 515.184C1347.91 522.847 1332.2 526.678 1313.81 526.678H1258.06V633H1202.89ZM1494.46 543.92H1577.79L1536.41 437.023L1494.46 543.92ZM1576.07 392.195L1664 633H1608.82L1588.71 576.103H1483.54L1464 633H1408.82L1496.18 392.195H1576.07Z" fill="white"/>
</svg>
