<svg width="2102" height="750" viewBox="0 0 2102 750" fill="none" xmlns="http://www.w3.org/2000/svg">
<path d="M518.391 633V392.195H683.333V424.379H573.563V488.747H659.77V520.931H573.563V633H518.391ZM797.261 543.92H880.594L839.215 437.023L797.261 543.92ZM878.87 392.195L966.801 633H911.629L891.514 576.103H786.342L766.801 633H711.629L798.985 392.195H878.87ZM1093.4 493.92C1109.11 493.92 1116.97 488.556 1116.97 477.828V440.471C1116.97 429.743 1109.11 424.379 1093.4 424.379H1049.15V493.92H1093.4ZM1105.47 526.103L1184.78 633H1126.74L1049.15 528.402V633H993.977V392.195H1104.9C1123.29 392.195 1139 396.027 1152.02 403.69C1165.43 411.352 1172.14 421.889 1172.14 435.299V483C1172.14 496.41 1165.62 506.946 1152.6 514.609C1139.57 522.272 1123.86 526.103 1105.47 526.103ZM1305.32 494.494C1321.02 494.494 1328.88 489.13 1328.88 478.402V440.471C1328.88 429.743 1321.02 424.379 1305.32 424.379H1261.06V494.494H1305.32ZM1205.89 633V392.195H1316.81C1335.2 392.195 1350.91 396.027 1363.94 403.69C1377.35 411.352 1384.05 421.889 1384.05 435.299V483.575C1384.05 496.985 1377.35 507.521 1363.94 515.184C1350.91 522.847 1335.2 526.678 1316.81 526.678H1261.06V633H1205.89ZM1497.46 543.92H1580.79L1539.41 437.023L1497.46 543.92ZM1579.07 392.195L1667 633H1611.82L1591.71 576.103H1486.54L1467 633H1411.82L1499.18 392.195H1579.07Z" fill="black"/>
<g clip-path="url(#clip0_111_46)">
<path d="M-0.015625 359.215L110.747 473.875L-0.015625 588.535L48.1382 638.386L207.051 473.872L48.1382 309.359L-0.015625 359.215ZM272.397 567.875V638.375H453.997V567.875H272.397Z" fill="black"/>
</g>
<defs>
<clipPath id="clip0_111_46">
<rect width="454" height="470" fill="white" transform="translate(0 280)"/>
</clipPath>
</defs>
</svg>
